<svg width="100" height="80" viewBox="0 0 101 92" fill="none" xmlns="http://www.w3.org/2000/svg">
<path d="M3.24891 47.6711C2.9519 47.8589 2.63823 48.0843 2.37336 48.2856C2.13409 48.4675 2 48.7534 2 49.0539V56C2 56.5523 2.44772 57 3 57H97.0377C97.59 57 98.0377 56.5542 98.0377 56.0019V22.2415C98.0377 22.0779 98.0805 21.9215 98.1538 21.7752C100.596 16.9059 97.2046 14.1138 94.8898 13.1822C94.6661 13.0921 94.4736 12.938 94.352 12.7298L93.2641 10.8675C92.8754 10.202 91.9158 10.2102 91.5559 10.8916C91.2393 11.4909 90.9128 12.1347 90.6726 12.6661C90.5615 12.9118 90.36 13.1095 90.1134 13.2183C84.5963 15.6527 85.6661 19.7133 87.0708 21.7222C87.1998 21.9066 87.2772 22.1224 87.2772 22.3473V41.4207C87.2772 41.7407 87.1084 42 86.7885 42C86.5026 42 86.1683 41.7845 86.1221 41.5024C81.8917 15.6527 61.217 7.26447 51.0236 6.24159C50.8035 6.2195 50.6031 6.12923 50.4403 5.97936L46.789 2.61759C46.4089 2.26767 45.8255 2.26447 45.4405 2.60901C44.2263 3.69576 42.4355 5.27705 41.4706 6.05565C41.343 6.15858 41.1857 6.2263 41.0244 6.25545C8.01648 12.2205 4.51517 40.2234 4.18419 46.2784C4.15405 46.8299 3.71571 47.3759 3.24891 47.6711Z" stroke="#009788" stroke-width="3"/>
<path d="M9.96 67.71L3.48 82.95C3.34 83.33 3.12 83.63 2.82 83.85C2.54 84.05 2.23 84.15 1.89 84.15C1.35 84.15 0.95 84 0.69 83.7C0.43 83.4 0.3 83.03 0.3 82.59C0.3 82.41 0.33 82.22 0.39 82.02L7.86 64.08C8.02 63.68 8.26 63.37 8.58 63.15C8.92 62.93 9.28 62.84 9.66 62.88C10.02 62.88 10.35 62.99 10.65 63.21C10.97 63.41 11.2 63.7 11.34 64.08L18.72 81.66C18.82 81.92 18.87 82.16 18.87 82.38C18.87 82.92 18.69 83.35 18.33 83.67C17.99 83.99 17.61 84.15 17.19 84.15C16.83 84.15 16.5 84.04 16.2 83.82C15.92 83.6 15.7 83.3 15.54 82.92L9.09 67.89L9.96 67.71ZM4.41 79.29L6.06 75.84H14.16L14.73 79.29H4.41ZM32.0637 84.3C30.5437 84.3 29.1237 84.02 27.8037 83.46C26.4837 82.9 25.3237 82.13 24.3237 81.15C23.3237 80.15 22.5337 79 21.9537 77.7C21.3937 76.4 21.1137 75 21.1137 73.5C21.1137 72 21.3937 70.6 21.9537 69.3C22.5337 68 23.3237 66.86 24.3237 65.88C25.3237 64.88 26.4837 64.1 27.8037 63.54C29.1237 62.98 30.5437 62.7 32.0637 62.7C33.0037 62.7 33.9137 62.8 34.7937 63C35.6737 63.2 36.4837 63.5 37.2237 63.9C37.5237 64.06 37.7437 64.28 37.8837 64.56C38.0437 64.82 38.1237 65.09 38.1237 65.37C38.1237 65.85 37.9637 66.28 37.6437 66.66C37.3237 67.04 36.9137 67.23 36.4137 67.23C36.2537 67.23 36.0837 67.21 35.9037 67.17C35.7437 67.13 35.5837 67.07 35.4237 66.99C34.9237 66.77 34.3937 66.6 33.8337 66.48C33.2737 66.36 32.6837 66.3 32.0637 66.3C30.7637 66.3 29.5737 66.63 28.4937 67.29C27.4337 67.93 26.5837 68.8 25.9437 69.9C25.3237 70.98 25.0137 72.18 25.0137 73.5C25.0137 74.8 25.3237 76 25.9437 77.1C26.5837 78.2 27.4337 79.08 28.4937 79.74C29.5737 80.38 30.7637 80.7 32.0637 80.7C32.6637 80.7 33.3237 80.64 34.0437 80.52C34.7637 80.4 35.3537 80.24 35.8137 80.04L35.5437 80.94V75.81L36.0537 76.26H32.7237C32.2037 76.26 31.7637 76.09 31.4037 75.75C31.0637 75.41 30.8937 74.98 30.8937 74.46C30.8937 73.94 31.0637 73.51 31.4037 73.17C31.7637 72.83 32.2037 72.66 32.7237 72.66H37.6437C38.1637 72.66 38.5937 72.84 38.9337 73.2C39.2737 73.54 39.4437 73.97 39.4437 74.49V80.85C39.4437 81.25 39.3437 81.58 39.1437 81.84C38.9637 82.1 38.7537 82.31 38.5137 82.47C37.5937 83.03 36.5837 83.48 35.4837 83.82C34.4037 84.14 33.2637 84.3 32.0637 84.3ZM52.6223 63C53.6623 63 54.6323 63.3 55.5323 63.9C56.4523 64.5 57.1923 65.31 57.7523 66.33C58.3123 67.35 58.5923 68.49 58.5923 69.75C58.5923 70.99 58.3123 72.12 57.7523 73.14C57.1923 74.16 56.4523 74.98 55.5323 75.6C54.6323 76.2 53.6623 76.5 52.6223 76.5H47.1023L47.4023 75.96V82.17C47.4023 82.69 47.2423 83.13 46.9223 83.49C46.6023 83.83 46.1823 84 45.6623 84C45.1623 84 44.7523 83.83 44.4323 83.49C44.1123 83.13 43.9523 82.69 43.9523 82.17V64.83C43.9523 64.31 44.1223 63.88 44.4623 63.54C44.8223 63.18 45.2623 63 45.7823 63H52.6223ZM52.6223 73.08C53.0023 73.08 53.3723 72.92 53.7323 72.6C54.0923 72.28 54.3923 71.87 54.6323 71.37C54.8723 70.85 54.9923 70.31 54.9923 69.75C54.9923 69.17 54.8723 68.63 54.6323 68.13C54.3923 67.63 54.0923 67.23 53.7323 66.93C53.3723 66.61 53.0023 66.45 52.6223 66.45H47.0423L47.4023 65.91V73.56L47.0723 73.08H52.6223ZM69.4373 67.71L62.9573 82.95C62.8173 83.33 62.5973 83.63 62.2973 83.85C62.0173 84.05 61.7073 84.15 61.3673 84.15C60.8273 84.15 60.4273 84 60.1673 83.7C59.9073 83.4 59.7773 83.03 59.7773 82.59C59.7773 82.41 59.8073 82.22 59.8673 82.02L67.3373 64.08C67.4973 63.68 67.7373 63.37 68.0573 63.15C68.3973 62.93 68.7573 62.84 69.1373 62.88C69.4973 62.88 69.8273 62.99 70.1273 63.21C70.4473 63.41 70.6773 63.7 70.8173 64.08L78.1973 81.66C78.2973 81.92 78.3473 82.16 78.3473 82.38C78.3473 82.92 78.1673 83.35 77.8073 83.67C77.4673 83.99 77.0873 84.15 76.6673 84.15C76.3073 84.15 75.9773 84.04 75.6773 83.82C75.3973 83.6 75.1773 83.3 75.0173 82.92L68.5673 67.89L69.4373 67.71ZM63.8873 79.29L65.5373 75.84H73.6373L74.2073 79.29H63.8873ZM85.5375 82.17C85.5375 82.69 85.3475 83.13 84.9675 83.49C84.5875 83.83 84.1475 84 83.6475 84C83.0875 84 82.6375 83.83 82.2975 83.49C81.9575 83.13 81.7875 82.69 81.7875 82.17V64.83C81.7875 64.31 81.9675 63.88 82.3275 63.54C82.6875 63.18 83.1475 63 83.7075 63C84.1875 63 84.6075 63.18 84.9675 63.54C85.3475 63.88 85.5375 64.31 85.5375 64.83V82.17ZM94.6992 82.17C94.6992 82.69 94.5092 83.13 94.1292 83.49C93.7492 83.83 93.3092 84 92.8092 84C92.2492 84 91.7992 83.83 91.4592 83.49C91.1192 83.13 90.9492 82.69 90.9492 82.17V64.83C90.9492 64.31 91.1292 63.88 91.4892 63.54C91.8492 63.18 92.3092 63 92.8692 63C93.3492 63 93.7692 63.18 94.1292 63.54C94.5092 63.88 94.6992 64.31 94.6992 64.83V82.17Z" fill="#009788"/>
</svg>
