<svg width="32" height="9" viewBox="0 0 32 9" fill="none" xmlns="http://www.w3.org/2000/svg">
<path d="M3.32 2.57L1.16 7.65C1.11333 7.77667 1.04 7.87667 0.94 7.95C0.846667 8.01667 0.743333 8.05 0.63 8.05C0.45 8.05 0.316667 8 0.23 7.9C0.143333 7.8 0.1 7.67667 0.1 7.53C0.1 7.47 0.11 7.40667 0.13 7.34L2.62 1.36C2.67333 1.22667 2.75333 1.12333 2.86 1.05C2.97333 0.976666 3.09333 0.946666 3.22 0.959999C3.34 0.959999 3.45 0.996666 3.55 1.07C3.65667 1.13667 3.73333 1.23333 3.78 1.36L6.24 7.22C6.27333 7.30667 6.29 7.38667 6.29 7.46C6.29 7.64 6.23 7.78333 6.11 7.89C5.99667 7.99667 5.87 8.05 5.73 8.05C5.61 8.05 5.5 8.01333 5.4 7.94C5.30667 7.86667 5.23333 7.76667 5.18 7.64L3.03 2.63L3.32 2.57ZM1.47 6.43L2.02 5.28H4.72L4.91 6.43H1.47ZM10.6879 8.1C10.1812 8.1 9.70789 8.00667 9.26789 7.82C8.82789 7.63333 8.44122 7.37667 8.10789 7.05C7.77456 6.71667 7.51122 6.33333 7.31789 5.9C7.13122 5.46667 7.03789 5 7.03789 4.5C7.03789 4 7.13122 3.53333 7.31789 3.1C7.51122 2.66667 7.77456 2.28667 8.10789 1.96C8.44122 1.62667 8.82789 1.36667 9.26789 1.18C9.70789 0.993333 10.1812 0.9 10.6879 0.9C11.0012 0.9 11.3046 0.933333 11.5979 1C11.8912 1.06667 12.1612 1.16667 12.4079 1.3C12.5079 1.35333 12.5812 1.42667 12.6279 1.52C12.6812 1.60667 12.7079 1.69667 12.7079 1.79C12.7079 1.95 12.6546 2.09333 12.5479 2.22C12.4412 2.34667 12.3046 2.41 12.1379 2.41C12.0846 2.41 12.0279 2.40333 11.9679 2.39C11.9146 2.37667 11.8612 2.35667 11.8079 2.33C11.6412 2.25667 11.4646 2.2 11.2779 2.16C11.0912 2.12 10.8946 2.1 10.6879 2.1C10.2546 2.1 9.85789 2.21 9.49789 2.43C9.14456 2.64333 8.86122 2.93333 8.64789 3.3C8.44122 3.66 8.33789 4.06 8.33789 4.5C8.33789 4.93333 8.44122 5.33333 8.64789 5.7C8.86122 6.06667 9.14456 6.36 9.49789 6.58C9.85789 6.79333 10.2546 6.9 10.6879 6.9C10.8879 6.9 11.1079 6.88 11.3479 6.84C11.5879 6.8 11.7846 6.74667 11.9379 6.68L11.8479 6.98V5.27L12.0179 5.42H10.9079C10.7346 5.42 10.5879 5.36333 10.4679 5.25C10.3546 5.13667 10.2979 4.99333 10.2979 4.82C10.2979 4.64667 10.3546 4.50333 10.4679 4.39C10.5879 4.27667 10.7346 4.22 10.9079 4.22H12.5479C12.7212 4.22 12.8646 4.28 12.9779 4.4C13.0912 4.51333 13.1479 4.65667 13.1479 4.83V6.95C13.1479 7.08333 13.1146 7.19333 13.0479 7.28C12.9879 7.36667 12.9179 7.43667 12.8379 7.49C12.5312 7.67667 12.1946 7.82667 11.8279 7.94C11.4679 8.04667 11.0879 8.1 10.6879 8.1ZM17.5408 1C17.8874 1 18.2108 1.1 18.5108 1.3C18.8174 1.5 19.0641 1.77 19.2508 2.11C19.4374 2.45 19.5308 2.83 19.5308 3.25C19.5308 3.66333 19.4374 4.04 19.2508 4.38C19.0641 4.72 18.8174 4.99333 18.5108 5.2C18.2108 5.4 17.8874 5.5 17.5408 5.5H15.7008L15.8008 5.32V7.39C15.8008 7.56333 15.7474 7.71 15.6408 7.83C15.5341 7.94333 15.3941 8 15.2208 8C15.0541 8 14.9174 7.94333 14.8108 7.83C14.7041 7.71 14.6508 7.56333 14.6508 7.39V1.61C14.6508 1.43667 14.7074 1.29333 14.8208 1.18C14.9408 1.06 15.0874 1 15.2608 1H17.5408ZM17.5408 4.36C17.6674 4.36 17.7908 4.30667 17.9108 4.2C18.0308 4.09333 18.1308 3.95667 18.2108 3.79C18.2908 3.61667 18.3308 3.43667 18.3308 3.25C18.3308 3.05667 18.2908 2.87667 18.2108 2.71C18.1308 2.54333 18.0308 2.41 17.9108 2.31C17.7908 2.20333 17.6674 2.15 17.5408 2.15H15.6808L15.8008 1.97V4.52L15.6908 4.36H17.5408ZM23.1458 2.57L20.9858 7.65C20.9391 7.77667 20.8658 7.87667 20.7658 7.95C20.6724 8.01667 20.5691 8.05 20.4558 8.05C20.2758 8.05 20.1424 8 20.0558 7.9C19.9691 7.8 19.9258 7.67667 19.9258 7.53C19.9258 7.47 19.9358 7.40667 19.9558 7.34L22.4458 1.36C22.4991 1.22667 22.5791 1.12333 22.6858 1.05C22.7991 0.976666 22.9191 0.946666 23.0458 0.959999C23.1658 0.959999 23.2758 0.996666 23.3758 1.07C23.4824 1.13667 23.5591 1.23333 23.6058 1.36L26.0658 7.22C26.0991 7.30667 26.1158 7.38667 26.1158 7.46C26.1158 7.64 26.0558 7.78333 25.9358 7.89C25.8224 7.99667 25.6958 8.05 25.5558 8.05C25.4358 8.05 25.3258 8.01333 25.2258 7.94C25.1324 7.86667 25.0591 7.76667 25.0058 7.64L22.8558 2.63L23.1458 2.57ZM21.2958 6.43L21.8458 5.28H24.5458L24.7358 6.43H21.2958ZM28.5125 7.39C28.5125 7.56333 28.4492 7.71 28.3225 7.83C28.1958 7.94333 28.0492 8 27.8825 8C27.6958 8 27.5458 7.94333 27.4325 7.83C27.3192 7.71 27.2625 7.56333 27.2625 7.39V1.61C27.2625 1.43667 27.3225 1.29333 27.4425 1.18C27.5625 1.06 27.7158 1 27.9025 1C28.0625 1 28.2025 1.06 28.3225 1.18C28.4492 1.29333 28.5125 1.43667 28.5125 1.61V7.39ZM31.5664 7.39C31.5664 7.56333 31.5031 7.71 31.3764 7.83C31.2497 7.94333 31.1031 8 30.9364 8C30.7497 8 30.5997 7.94333 30.4864 7.83C30.3731 7.71 30.3164 7.56333 30.3164 7.39V1.61C30.3164 1.43667 30.3764 1.29333 30.4964 1.18C30.6164 1.06 30.7697 1 30.9564 1C31.1164 1 31.2564 1.06 31.3764 1.18C31.5031 1.29333 31.5664 1.43667 31.5664 1.61V7.39Z" fill="#009788"/>
</svg>
