<svg width="25" height="25" viewBox="0 0 25 25" fill="none" xmlns="http://www.w3.org/2000/svg">
<path d="M5.7539 0.0342845C5.53391 0.097823 5.22593 0.425291 5.16238 0.650119C5.13305 0.752758 5.1086 1.08023 5.1086 1.37837V1.92578L4.16999 1.94533C3.32426 1.96488 3.18249 1.98443 2.78651 2.10173C1.53503 2.47807 0.52797 3.47514 0.136881 4.74591L0 5.18579V13.4702V21.7547L0.136881 22.1946C0.52797 23.4604 1.52036 24.4526 2.78651 24.8436L3.22649 24.9805H7.46003H11.6887L11.8891 24.8485C12.1922 24.6481 12.3193 24.4086 12.3193 24.0274C12.3193 23.6462 12.1922 23.4067 11.8891 23.2063L11.6887 23.0743L7.58224 23.0499L3.47092 23.0254L3.18738 22.913C2.64474 22.6931 2.2341 22.263 2.04344 21.7107C1.96033 21.4761 1.95545 21.0362 1.95545 13.4702C1.95545 5.90426 1.96033 5.46438 2.04344 5.22978C2.2341 4.67748 2.64963 4.24249 3.18738 4.03232C3.43181 3.93946 3.58824 3.91991 4.28243 3.90036L5.09883 3.88081L5.11349 4.53574C5.13305 5.11736 5.14282 5.20534 5.25037 5.37152C5.31393 5.47416 5.45569 5.6159 5.56324 5.68921C5.72946 5.80162 5.81745 5.82117 6.08633 5.82117C6.3552 5.82117 6.4432 5.80162 6.60941 5.68921C6.71696 5.6159 6.85873 5.47416 6.92228 5.37152C7.02983 5.20534 7.03961 5.11736 7.05427 4.53574L7.07383 3.89058H9.26393H11.454L11.4736 4.54063C11.4882 5.15158 11.498 5.20534 11.6202 5.39107C11.8207 5.69898 12.0602 5.82117 12.4464 5.82117C12.7104 5.82117 12.7984 5.79674 12.9646 5.68921C13.0722 5.6159 13.2139 5.47416 13.2775 5.37152C13.385 5.20534 13.3948 5.11736 13.4095 4.53574L13.429 3.89058H15.6436H17.8581L17.8777 4.54063C17.8923 5.15158 17.9021 5.20534 18.0243 5.39107C18.2248 5.69898 18.4643 5.82117 18.8505 5.82117C19.1145 5.82117 19.2025 5.79674 19.3687 5.68921C19.4762 5.6159 19.618 5.47416 19.6816 5.37152C19.7891 5.20534 19.7989 5.11736 19.8184 4.53574L19.8331 3.88081L20.674 3.90036C21.3828 3.91991 21.549 3.93457 21.7739 4.02743C22.3165 4.24249 22.6978 4.61883 22.9129 5.14669L23.0254 5.43017L23.0498 8.58265L23.0743 11.7351L23.1916 11.9209C23.2551 12.0235 23.3969 12.1652 23.5045 12.2386C23.6707 12.3461 23.7587 12.3705 24.0227 12.3705C24.4089 12.3705 24.6484 12.2483 24.8488 11.9404L24.9808 11.74V8.46535V5.18579L24.8439 4.74591C24.4529 3.48003 23.4458 2.47807 22.1943 2.10173C21.7983 1.98443 21.6566 1.96488 20.7913 1.94533L19.8331 1.92578L19.8136 1.28062C19.7989 0.674557 19.7891 0.620794 19.6669 0.435066C19.4665 0.132036 19.2269 0.00495905 18.8456 0.00495905C18.4643 0.00495905 18.2248 0.132036 18.0243 0.435066C17.9021 0.620794 17.8923 0.674557 17.8777 1.2855L17.8581 1.93555H15.6436H13.429L13.4095 1.2855C13.3948 0.70877 13.385 0.620794 13.2775 0.454616C13.2139 0.351977 13.0722 0.210237 12.9646 0.136924C12.7984 0.0293969 12.7104 0.00495905 12.4464 0.00495905C12.0602 0.00495905 11.8207 0.127148 11.6202 0.435066C11.498 0.620794 11.4882 0.674557 11.4736 1.2855L11.454 1.93555H9.26393H7.07383L7.05427 1.2855C7.03961 0.674557 7.02983 0.620794 6.90761 0.435066C6.83428 0.327539 6.6974 0.190687 6.60452 0.132036C6.40409 0.00495905 5.99344 -0.0390291 5.7539 0.0342845Z" fill="#009788"/>
<path d="M5.75264 9.32497C5.51797 9.39339 5.21975 9.71594 5.15131 9.96518C5.03886 10.4001 5.20997 10.8546 5.58153 11.0843C5.86019 11.2603 6.33441 11.2505 6.60819 11.0697C6.9113 10.8693 7.03841 10.6298 7.03841 10.2486C7.03841 9.87233 6.9113 9.62797 6.62285 9.43738C6.41263 9.29565 6.01175 9.24678 5.75264 9.32497Z" fill="#009788"/>
<path d="M10.0026 9.32497C9.76797 9.39339 9.46975 9.71594 9.40131 9.96518C9.28886 10.4001 9.45997 10.8546 9.83153 11.0843C10.1102 11.2603 10.5844 11.2505 10.8582 11.0697C11.1613 10.8693 11.2884 10.6298 11.2884 10.2486C11.2884 9.87233 11.1613 9.62797 10.8729 9.43738C10.6626 9.29565 10.2617 9.24678 10.0026 9.32497Z" fill="#009788"/>
<path d="M14.2604 9.32497C14.0258 9.39339 13.7276 9.71594 13.6591 9.96518C13.5467 10.4001 13.7178 10.8546 14.0893 11.0843C14.368 11.2603 14.8422 11.2505 15.116 11.0697C15.4191 10.8693 15.5462 10.6298 15.5462 10.2486C15.5462 9.87233 15.4191 9.62797 15.1307 9.43738C14.9204 9.29565 14.5196 9.24678 14.2604 9.32497Z" fill="#009788"/>
<path d="M18.5183 9.32497C18.2836 9.39339 17.9854 9.71594 17.9169 9.96518C17.8045 10.4001 17.9756 10.8546 18.3472 11.0843C18.6258 11.2603 19.1 11.2505 19.3738 11.0697C19.6769 10.8693 19.804 10.6298 19.804 10.2486C19.804 9.87233 19.6769 9.62797 19.3885 9.43738C19.1783 9.29565 18.7774 9.24678 18.5183 9.32497Z" fill="#009788"/>
<path d="M18.2344 13.2519C16.9438 13.4523 15.7657 14.0534 14.876 14.9674C14.4067 15.4414 14.0841 15.9057 13.781 16.5264C12.9793 18.1735 12.9793 20.0112 13.781 21.6582C14.3822 22.885 15.3013 23.8038 16.5185 24.3952C18.1757 25.2016 20.004 25.2016 21.6612 24.3952C22.8784 23.8038 23.7974 22.885 24.3987 21.6582C25.2004 20.0112 25.2004 18.1735 24.3987 16.5264C23.7974 15.2997 22.8784 14.3809 21.6612 13.7895C20.5759 13.2616 19.3685 13.071 18.2344 13.2519ZM19.784 15.2019C21.6905 15.5783 23.0495 17.1911 23.0495 19.0923C23.0495 20.9935 21.6905 22.6064 19.784 22.9827C18.4299 23.2466 16.9242 22.6944 16.0443 21.6094C14.832 20.1138 14.832 18.0709 16.0443 16.5753C16.9242 15.4952 18.4299 14.938 19.784 15.2019Z" fill="#009788"/>
<path d="M18.7556 16.1665C18.5259 16.2349 18.2228 16.5575 18.1593 16.797C18.125 16.9289 18.1104 17.4274 18.1202 18.2093L18.1348 19.4213L18.2668 19.6168C18.3401 19.7243 18.4819 19.8661 18.5845 19.9296C18.7654 20.042 18.7996 20.0469 19.7968 20.0469C20.7939 20.0469 20.8281 20.042 21.009 19.9296C21.1117 19.8661 21.2534 19.7243 21.3267 19.6168C21.5076 19.3431 21.5174 18.8691 21.3414 18.5905C21.1508 18.2826 20.9064 18.1507 20.4567 18.1262L20.0754 18.1067L20.0558 17.4372C20.0412 16.8409 20.0314 16.753 19.9239 16.5868C19.6941 16.2154 19.1858 16.0346 18.7556 16.1665Z" fill="#009788"/>
<path d="M5.75264 13.575C5.51797 13.6434 5.21975 13.9659 5.15131 14.2152C5.03886 14.6501 5.20997 15.1046 5.58153 15.3343C5.86019 15.5103 6.33441 15.5005 6.60819 15.3197C6.9113 15.1193 7.03841 14.8798 7.03841 14.4986C7.03841 14.1223 6.9113 13.878 6.62285 13.6874C6.41263 13.5457 6.01175 13.4968 5.75264 13.575Z" fill="#009788"/>
<path d="M10.0026 13.575C9.76797 13.6434 9.46975 13.9659 9.40131 14.2152C9.28886 14.6501 9.45997 15.1046 9.83153 15.3343C10.1102 15.5103 10.5844 15.5005 10.8582 15.3197C11.1613 15.1193 11.2884 14.8798 11.2884 14.4986C11.2884 14.1223 11.1613 13.878 10.8729 13.6874C10.6626 13.5457 10.2617 13.4968 10.0026 13.575Z" fill="#009788"/>
<path d="M5.75264 17.8281C5.51797 17.8966 5.21975 18.2193 5.15131 18.4686C5.03886 18.9037 5.20997 19.3584 5.58153 19.5882C5.86019 19.7642 6.33441 19.7544 6.60819 19.5735C6.9113 19.3731 7.03841 19.1335 7.03841 18.7522C7.03841 18.3757 6.9113 18.1313 6.62285 17.9406C6.41263 17.7988 6.01175 17.7499 5.75264 17.8281Z" fill="#009788"/>
<path d="M10.0026 17.8281C9.76797 17.8966 9.46975 18.2193 9.40131 18.4686C9.28886 18.9037 9.45997 19.3584 9.83153 19.5882C10.1102 19.7642 10.5844 19.7544 10.8582 19.5735C11.1613 19.3731 11.2884 19.1335 11.2884 18.7522C11.2884 18.3757 11.1613 18.1313 10.8729 17.9406C10.6626 17.7988 10.2617 17.7499 10.0026 17.8281Z" fill="#009788"/>
</svg>
