<svg width="25" height="26" viewBox="0 0 25 26" fill="none" xmlns="http://www.w3.org/2000/svg">
<path d="M3.7998 0.505859C3.70703 0.554688 3.58008 0.666992 3.52148 0.759766C3.41895 0.911133 3.40918 0.979492 3.40918 1.64355V2.36133L2.76465 2.39062C2.27637 2.40527 2.04199 2.43945 1.82715 2.51758C1.0166 2.80566 0.40625 3.4209 0.12793 4.22168L0.015625 4.54883V13.8994V23.25L0.12793 23.5723C0.40625 24.3828 1.03125 25.0078 1.83691 25.2861L2.16406 25.3984H12.4912H22.8184L23.1455 25.2861C23.9512 25.0078 24.5762 24.3828 24.8545 23.5723L24.9668 23.25V13.8994V4.54883L24.8545 4.22168C24.5762 3.4209 23.9658 2.80566 23.1553 2.51758C22.9404 2.43945 22.7061 2.40527 22.2227 2.39062L21.5732 2.36133V1.6582C21.5732 1.13086 21.5537 0.920898 21.5 0.813477C21.1973 0.232422 20.3379 0.339844 20.1621 0.984375C20.1328 1.0918 20.1084 1.44824 20.1084 1.77539V2.37598H19.1807H18.2529V1.70703C18.2529 1.14062 18.2383 1.00879 18.1553 0.837891C17.8965 0.300781 17.1201 0.295898 16.8662 0.833008C16.8076 0.959961 16.7881 1.15527 16.7881 1.6875V2.37598H15.8359H14.8838V1.64844C14.8838 0.979492 14.874 0.911133 14.7715 0.759766C14.4736 0.31543 13.8877 0.325195 13.5459 0.78418C13.4531 0.901367 13.4434 1.00391 13.4287 1.64844L13.4092 2.37598H12.4912H11.5732L11.5537 1.64844C11.5391 1.00391 11.5293 0.901367 11.4365 0.78418C11.0947 0.325195 10.5088 0.31543 10.2109 0.759766C10.1084 0.911133 10.0986 0.979492 10.0986 1.64844V2.37598H9.14648H8.19434V1.6875C8.19434 1.15527 8.1748 0.959961 8.11621 0.833008C7.8623 0.295898 7.08594 0.300781 6.82715 0.837891C6.74414 1.00879 6.72949 1.14062 6.72949 1.70703V2.37598H5.80664H4.88379L4.86426 1.67773C4.84961 0.920898 4.80078 0.759766 4.52734 0.554688C4.3418 0.417969 4.00977 0.398438 3.7998 0.505859ZM3.40918 4.56836C3.40918 5.2373 3.41895 5.30566 3.52148 5.45703C3.8291 5.91602 4.46387 5.88672 4.75195 5.39844C4.83496 5.25684 4.85449 5.125 4.86426 4.53418L4.88379 3.84082H5.80664H6.72949V4.50977C6.72949 5.07617 6.74414 5.20801 6.82715 5.37891C7.08594 5.91602 7.8623 5.9209 8.11621 5.38379C8.1748 5.25684 8.19434 5.06152 8.19434 4.5293V3.84082H9.14648H10.0986V4.56836C10.0986 5.2373 10.1084 5.30566 10.2109 5.45703C10.5088 5.90137 11.0947 5.8916 11.4365 5.43262C11.5293 5.31543 11.5391 5.21289 11.5537 4.56836L11.5732 3.84082H12.4912H13.4092L13.4287 4.56836C13.4434 5.21289 13.4531 5.31543 13.5459 5.43262C13.8877 5.8916 14.4736 5.90137 14.7715 5.45703C14.874 5.30566 14.8838 5.2373 14.8838 4.56836V3.84082H15.8359H16.7881V4.5293C16.7881 5.2959 16.8369 5.47168 17.0908 5.65234C17.4424 5.90625 17.9648 5.77441 18.1504 5.38379C18.2383 5.20801 18.2529 5.08594 18.2529 4.50977V3.84082H19.1758H20.0986L20.1182 4.53418C20.1279 5.125 20.1475 5.25684 20.2305 5.39844C20.5186 5.88672 21.1533 5.91602 21.4609 5.45703C21.5635 5.30566 21.5732 5.2373 21.5732 4.56836V3.84082H22.0273C22.6035 3.84082 22.8867 3.93359 23.1602 4.20703C23.4971 4.53906 23.5264 4.7002 23.5264 6.07227V7.25879H12.4912H1.45605V6.07227C1.45605 4.69531 1.48535 4.53906 1.82227 4.20703C2.0957 3.93359 2.34961 3.85059 2.93555 3.8457L3.40918 3.84082V4.56836ZM23.5264 15.8184C23.5264 23.792 23.5557 23.2012 23.1602 23.5918C22.7646 23.9922 23.707 23.958 12.4912 23.958C1.27539 23.958 2.21777 23.9922 1.82227 23.5918C1.42676 23.2012 1.45605 23.792 1.45605 15.8184V8.72363H12.4912H23.5264V15.8184Z" fill="#009788"/>
<path d="M8.6209 12.2086C6.58476 13.024 4.85136 13.732 4.76836 13.7809C4.28984 14.0641 4.33867 14.7818 4.86113 15.0357C4.98808 15.0992 5.71074 15.3971 6.46757 15.6998L7.84453 16.2516L7.85918 17.9654L7.87383 19.6842L8.03008 20.0113C8.45488 20.9098 9.48027 21.525 11.0965 21.8424C11.7068 21.9596 13.2498 21.9596 13.8992 21.8375C15.452 21.5494 16.5213 20.9049 16.951 20.0016L17.1023 19.6842L17.117 17.9654L17.1316 16.2516L18.1033 15.8609L19.0799 15.4703V17.1988C19.0799 18.8395 19.0848 18.942 19.1775 19.1227C19.2898 19.3424 19.5682 19.5133 19.8123 19.5133C20.0564 19.5133 20.3348 19.3424 20.4471 19.1227C20.5398 18.9371 20.5447 18.8395 20.5447 16.5836C20.5447 14.3277 20.5398 14.2301 20.4471 14.0445C20.3836 13.9225 20.2811 13.815 20.1639 13.7565C19.6609 13.4977 12.6199 10.7242 12.4734 10.7242C12.3855 10.7291 10.7156 11.3736 8.6209 12.2086ZM15.1639 13.317C16.5896 13.8883 17.7615 14.3717 17.7615 14.3863C17.7615 14.401 16.575 14.8893 15.1248 15.4703L12.4881 16.525L9.85137 15.4703C8.40117 14.8893 7.21465 14.401 7.21465 14.3863C7.21465 14.3424 12.4539 12.2428 12.5125 12.2623C12.5418 12.2672 13.7332 12.7457 15.1639 13.317ZM12.4881 18.0484C12.5711 18.0484 13.3182 17.775 14.1482 17.443L15.6619 16.8375V18.0875C15.6619 19.2301 15.6521 19.357 15.5691 19.4938C15.3738 19.816 14.6316 20.1822 13.8064 20.358C13.1473 20.4996 11.8289 20.4996 11.1697 20.358C10.3445 20.1822 9.60234 19.816 9.40703 19.4938C9.32402 19.357 9.31426 19.2301 9.31426 18.0875V16.8375L10.8279 17.443C11.658 17.775 12.4051 18.0484 12.4881 18.0484Z" fill="#009788"/>
</svg>
