<svg width="48" height="40" viewBox="0 0 48 40" fill="none" xmlns="http://www.w3.org/2000/svg">
<path d="M43.0769 6.15385H35.6044L33.8242 1.16484C33.7012 0.823451 33.4758 0.528361 33.1788 0.319877C32.8818 0.111392 32.5277 -0.00032012 32.1648 6.89026e-07H15.3077C14.5659 6.89026e-07 13.9011 0.467034 13.6538 1.16484L11.8681 6.15385H4.3956C1.96703 6.15385 0 8.12088 0 10.5495V35.6044C0 38.033 1.96703 40 4.3956 40H43.0769C45.5055 40 47.4725 38.033 47.4725 35.6044V10.5495C47.4725 8.12088 45.5055 6.15385 43.0769 6.15385ZM43.5165 35.6044C43.5165 35.8462 43.3187 36.044 43.0769 36.044H4.3956C4.15385 36.044 3.95604 35.8462 3.95604 35.6044V10.5495C3.95604 10.3077 4.15385 10.1099 4.3956 10.1099H14.6538L15.5934 7.48352L16.8516 3.95604H30.6154L31.8736 7.48352L32.8132 10.1099H43.0769C43.3187 10.1099 43.5165 10.3077 43.5165 10.5495V35.6044ZM23.7363 13.6264C18.8791 13.6264 14.9451 17.5604 14.9451 22.4176C14.9451 27.2747 18.8791 31.2088 23.7363 31.2088C28.5934 31.2088 32.5275 27.2747 32.5275 22.4176C32.5275 17.5604 28.5934 13.6264 23.7363 13.6264ZM23.7363 27.6923C20.8242 27.6923 18.4615 25.3297 18.4615 22.4176C18.4615 19.5055 20.8242 17.1429 23.7363 17.1429C26.6484 17.1429 29.011 19.5055 29.011 22.4176C29.011 25.3297 26.6484 27.6923 23.7363 27.6923Z" fill="#009788"/>
</svg>
