<svg width="25" height="25" viewBox="0 0 25 25" fill="none" xmlns="http://www.w3.org/2000/svg">
<g clip-path="url(#clip0_1524_2296)">
<path d="M3.40527 0.101565C3.11231 0.252932 3.02441 0.482424 3.02441 1.07324V1.56153H2.51172C1.62305 1.56153 1.14453 1.73242 0.651367 2.22071C0.333984 2.53809 0.138672 2.88477 0.0507813 3.30957C-0.0273438 3.68067 -0.0273438 22.8848 0.0507813 23.251C0.231445 24.0908 0.905274 24.7646 1.74512 24.9453C2.10645 25.0234 14.4795 25.0234 14.8506 24.9453C15.6807 24.7695 16.3691 24.0762 16.5449 23.251C16.6231 22.8799 16.6231 3.67578 16.5449 3.30957C16.4522 2.88965 16.2568 2.53809 15.9395 2.21582C15.4561 1.72754 14.9824 1.56153 14.084 1.56153H13.5713V1.07324C13.5713 0.677737 13.5518 0.545901 13.4736 0.389651C13.3613 0.169924 13.083 -0.000974178 12.8389 -0.000974178C12.5947 -0.000974178 12.3164 0.169924 12.2041 0.389651C12.126 0.545901 12.1064 0.677737 12.1064 1.07324V1.56153H11.3252H10.5439V1.07324C10.5439 0.677737 10.5244 0.545901 10.4463 0.389651C10.334 0.169924 10.0557 -0.000974178 9.81153 -0.000974178C9.56738 -0.000974178 9.28906 0.169924 9.17676 0.389651C9.09863 0.545901 9.0791 0.677737 9.0791 1.07324V1.56153H8.29785H7.5166V1.07324C7.5166 0.677737 7.49707 0.545901 7.41895 0.389651C7.30664 0.169924 7.02832 -0.000974178 6.78418 -0.000974178C6.54004 -0.000974178 6.26172 0.169924 6.14942 0.389651C6.07129 0.545901 6.05176 0.677737 6.05176 1.07324V1.56153H5.27051H4.48926V1.07324C4.48926 0.472659 4.40137 0.248049 4.09863 0.0966821C3.85938 -0.0253882 3.63965 -0.0253882 3.40527 0.101565ZM3.02441 3.22168C3.02441 3.6416 3.36621 4.00293 3.75684 4.00293C4.14746 4.00293 4.48926 3.6416 4.48926 3.22168V3.02637H5.27051H6.05176V3.22168C6.05176 3.6416 6.39356 4.00293 6.78418 4.00293C7.17481 4.00293 7.5166 3.6416 7.5166 3.22168V3.02637H8.29785H9.0791V3.22168C9.0791 3.6416 9.4209 4.00293 9.81153 4.00293C10.2022 4.00293 10.5439 3.6416 10.5439 3.22168V3.02637H11.3252H12.1064V3.22168C12.1064 3.6416 12.4482 4.00293 12.8389 4.00293C13.2295 4.00293 13.5713 3.6416 13.5713 3.22168V3.02637H14.0596C14.6602 3.02637 14.8848 3.11426 15.0361 3.41699C15.124 3.58789 15.1338 3.70508 15.1338 4.54004V5.46778H8.29785H1.46191V4.52539C1.4668 3.45606 1.49609 3.34375 1.83301 3.14356C1.99902 3.04102 2.08203 3.02637 2.52637 3.02637H3.02441V3.22168ZM15.1338 14.9404C15.1338 22.875 15.1338 22.9531 15.0361 23.1436C14.9727 23.2705 14.8701 23.373 14.7432 23.4365C14.5527 23.5342 14.4697 23.5342 8.29297 23.5342H2.03809L1.84277 23.4268C1.72559 23.3584 1.6084 23.2412 1.55469 23.1338C1.4668 22.958 1.46191 22.709 1.46191 14.9404V6.93262H8.29785H15.1338V14.9404Z" fill="#009788"/>
<path d="M3.31055 8.74316C3.10059 8.85059 2.92969 9.13867 2.92969 9.37305C2.92969 9.61719 3.10059 9.89551 3.32031 10.0078C3.50586 10.1055 3.59863 10.1055 8.30078 10.1055C13.0029 10.1055 13.0957 10.1055 13.2813 10.0078C13.501 9.89551 13.6719 9.61719 13.6719 9.37305C13.6719 9.12891 13.501 8.85059 13.2813 8.73828C13.0908 8.64062 13.0078 8.64062 8.29102 8.64062C3.6084 8.64551 3.48633 8.64551 3.31055 8.74316Z" fill="#009788"/>
<path d="M3.31055 11.6729C3.10059 11.7803 2.92969 12.0684 2.92969 12.3027C2.92969 12.5469 3.10059 12.8252 3.32031 12.9375C3.50586 13.0352 3.59863 13.0352 8.30078 13.0352C13.0029 13.0352 13.0957 13.0352 13.2813 12.9375C13.501 12.8252 13.6719 12.5469 13.6719 12.3027C13.6719 12.0586 13.501 11.7803 13.2813 11.668C13.0908 11.5703 13.0078 11.5703 8.29102 11.5703C3.6084 11.5752 3.48633 11.5752 3.31055 11.6729Z" fill="#009788"/>
<path d="M3.31055 14.6025C3.10059 14.71 2.92969 14.998 2.92969 15.2324C2.92969 15.4766 3.10059 15.7549 3.32031 15.8672C3.50586 15.9648 3.59863 15.9648 8.30078 15.9648C13.0029 15.9648 13.0957 15.9648 13.2813 15.8672C13.501 15.7549 13.6719 15.4766 13.6719 15.2324C13.6719 14.9883 13.501 14.71 13.2813 14.5977C13.0908 14.5 13.0078 14.5 8.29102 14.5C3.6084 14.5049 3.48633 14.5049 3.31055 14.6025Z" fill="#009788"/>
<path d="M3.31055 17.5322C3.10059 17.6396 2.92969 17.9277 2.92969 18.1621C2.92969 18.4062 3.10059 18.6846 3.32031 18.7969C3.50586 18.8945 3.59863 18.8945 8.30078 18.8945C13.0029 18.8945 13.0957 18.8945 13.2813 18.7969C13.501 18.6846 13.6719 18.4062 13.6719 18.1621C13.6719 17.918 13.501 17.6396 13.2813 17.5273C13.0908 17.4297 13.0078 17.4297 8.29102 17.4297C3.6084 17.4346 3.48633 17.4346 3.31055 17.5322Z" fill="#009788"/>
<path d="M3.31055 20.4619C3.10059 20.5693 2.92969 20.8574 2.92969 21.0918C2.92969 21.3359 3.10059 21.6143 3.32031 21.7266C3.50586 21.8242 3.59863 21.8242 7.44629 21.8242C11.2939 21.8242 11.3867 21.8242 11.5723 21.7266C11.792 21.6143 11.9629 21.3359 11.9629 21.0918C11.9629 20.8477 11.792 20.5693 11.5723 20.457C11.3867 20.3594 11.2939 20.3594 7.43652 20.3594C3.60352 20.3643 3.48633 20.3643 3.31055 20.4619Z" fill="#009788"/>
<path d="M19.8487 2.11743C19.4385 2.21997 19.1309 2.39575 18.8184 2.70825C18.501 3.02563 18.3057 3.37231 18.2178 3.79712C18.1788 3.98266 18.1641 6.38012 18.1641 12.1223C18.1641 20.9016 18.1543 20.594 18.4375 21.4924C18.6475 22.1565 19.2139 23.1721 19.5313 23.4602C19.6143 23.5334 19.6289 23.6165 19.6289 23.9827C19.6289 24.5198 19.7266 24.7542 20.0196 24.9006C20.2637 25.0227 20.459 25.0227 20.7032 24.9006C20.9961 24.7542 21.0938 24.5198 21.0938 23.9827C21.0938 23.6165 21.1084 23.5334 21.1914 23.4602C21.5137 23.1721 22.0752 22.1565 22.2852 21.4827C22.544 20.6672 22.5586 20.4329 22.5586 16.7073V13.2795H23.0469H23.5352V14.2073C23.5352 15.0422 23.545 15.1594 23.6329 15.3303C23.7452 15.55 24.0235 15.7209 24.2676 15.7209C24.5118 15.7209 24.7901 15.55 24.9024 15.3303C25 15.1448 25 15.052 25 10.594C25 6.13598 25 6.04321 24.9024 5.85766C24.7901 5.63794 24.5118 5.46704 24.2676 5.46704C23.877 5.46704 23.5352 5.82837 23.5352 6.24829V6.4436H23.0469H22.5586V5.24731C22.5586 4.54419 22.5342 3.94848 22.5049 3.79712C22.4121 3.37719 22.2168 3.02563 21.8995 2.70336C21.3526 2.15161 20.586 1.93188 19.8487 2.11743ZM20.7032 3.61157C20.9961 3.76294 21.0938 3.99243 21.0938 4.5393V4.97876H20.3614H19.6289V4.52465C19.6338 3.99243 19.712 3.80688 20 3.6311C20.2344 3.4895 20.4493 3.48462 20.7032 3.61157ZM21.0938 12.5471V18.6506H20.3614H19.6289V12.5471V6.4436H20.3614H21.0938V12.5471ZM23.5352 9.86157V11.8147H23.0469H22.5586V9.86157V7.90844H23.0469H23.5352V9.86157ZM21.0401 20.3938C21.0157 20.55 20.9522 20.8284 20.8936 21.0188C20.7862 21.3801 20.4248 22.1174 20.3614 22.1174C20.3418 22.1174 20.2344 21.9465 20.127 21.7366C19.9268 21.3508 19.712 20.7014 19.6631 20.3206L19.6387 20.1155H20.3565H21.0791L21.0401 20.3938Z" fill="#009788"/>
</g>
<defs>
<clipPath id="clip0_1524_2296">
<rect width="25" height="25" fill="white"/>
</clipPath>
</defs>
</svg>
