<svg width="310" height="210" viewBox="0 0 310 210" fill="none" xmlns="http://www.w3.org/2000/svg">
<g filter="url(#filter0_d_986_2019)">
<rect x="4" y="20.1729" width="299.135" height="179.827" rx="20" fill="#B8F3F7"/>
</g>
<rect x="29.3661" y="50.7207" width="34.5821" height="34.5821" rx="10" fill="white"/>
<rect x="72.5938" y="50.7207" width="34.5821" height="34.5821" rx="10" fill="white"/>
<rect x="115.821" y="50.7207" width="34.5821" height="34.5821" rx="10" fill="white"/>
<rect x="159.049" y="50.7207" width="34.5821" height="34.5821" rx="10" fill="white"/>
<rect x="202.27" y="50.7207" width="34.5821" height="34.5821" rx="10" fill="white"/>
<rect x="159.043" y="91.0664" width="34.5821" height="34.5821" rx="10" fill="white"/>
<rect x="72.5875" y="136.6" width="34.5821" height="34.5821" rx="10" fill="white"/>
<rect x="115.816" y="136.6" width="34.5821" height="34.5821" rx="10" fill="white"/>
<rect x="115.821" y="91.0664" width="34.5821" height="34.5821" rx="10" fill="white"/>
<rect x="29.3661" y="136.6" width="34.5821" height="34.5821" rx="10" fill="white"/>
<rect x="72.5938" y="91.0664" width="34.5821" height="34.5821" rx="10" fill="white"/>
<rect x="29.3661" y="91.0664" width="34.5821" height="34.5821" rx="10" fill="white"/>
<circle cx="243.193" cy="145.821" r="34.5821" fill="#FE0000"/>
<g filter="url(#filter1_d_986_2019)">
<rect x="217.833" width="13.2565" height="43.2277" rx="6.62824" fill="#F6F6F6"/>
</g>
<g filter="url(#filter2_d_986_2019)">
<rect x="146.939" width="13.2565" height="43.2277" rx="6.62824" fill="#F6F6F6"/>
</g>
<g filter="url(#filter3_d_986_2019)">
<rect x="76.0461" width="13.2565" height="43.2277" rx="6.62824" fill="#F6F6F6"/>
</g>
<path d="M238.078 128.301L243.322 137.939L248.713 128.301H257.707L248.742 143.799L258.117 160H249.094L243.381 149.805L237.668 160H228.645L238.02 143.799L229.055 128.301H238.078Z" fill="white"/>
<defs>
<filter id="filter0_d_986_2019" x="0" y="20.1729" width="309.135" height="189.827" filterUnits="userSpaceOnUse" color-interpolation-filters="sRGB">
<feFlood flood-opacity="0" result="BackgroundImageFix"/>
<feColorMatrix in="SourceAlpha" type="matrix" values="0 0 0 0 0 0 0 0 0 0 0 0 0 0 0 0 0 0 127 0" result="hardAlpha"/>
<feOffset dx="1" dy="5"/>
<feGaussianBlur stdDeviation="2.5"/>
<feComposite in2="hardAlpha" operator="out"/>
<feColorMatrix type="matrix" values="0 0 0 0 0 0 0 0 0 0 0 0 0 0 0 0 0 0 0.2 0"/>
<feBlend mode="normal" in2="BackgroundImageFix" result="effect1_dropShadow_986_2019"/>
<feBlend mode="normal" in="SourceGraphic" in2="effect1_dropShadow_986_2019" result="shape"/>
</filter>
<filter id="filter1_d_986_2019" x="216.833" y="0" width="15.2565" height="45.2275" filterUnits="userSpaceOnUse" color-interpolation-filters="sRGB">
<feFlood flood-opacity="0" result="BackgroundImageFix"/>
<feColorMatrix in="SourceAlpha" type="matrix" values="0 0 0 0 0 0 0 0 0 0 0 0 0 0 0 0 0 0 127 0" result="hardAlpha"/>
<feOffset dy="1"/>
<feGaussianBlur stdDeviation="0.5"/>
<feComposite in2="hardAlpha" operator="out"/>
<feColorMatrix type="matrix" values="0 0 0 0 0 0 0 0 0 0 0 0 0 0 0 0 0 0 0.25 0"/>
<feBlend mode="normal" in2="BackgroundImageFix" result="effect1_dropShadow_986_2019"/>
<feBlend mode="normal" in="SourceGraphic" in2="effect1_dropShadow_986_2019" result="shape"/>
</filter>
<filter id="filter2_d_986_2019" x="145.939" y="0" width="15.2565" height="45.2275" filterUnits="userSpaceOnUse" color-interpolation-filters="sRGB">
<feFlood flood-opacity="0" result="BackgroundImageFix"/>
<feColorMatrix in="SourceAlpha" type="matrix" values="0 0 0 0 0 0 0 0 0 0 0 0 0 0 0 0 0 0 127 0" result="hardAlpha"/>
<feOffset dy="1"/>
<feGaussianBlur stdDeviation="0.5"/>
<feComposite in2="hardAlpha" operator="out"/>
<feColorMatrix type="matrix" values="0 0 0 0 0 0 0 0 0 0 0 0 0 0 0 0 0 0 0.25 0"/>
<feBlend mode="normal" in2="BackgroundImageFix" result="effect1_dropShadow_986_2019"/>
<feBlend mode="normal" in="SourceGraphic" in2="effect1_dropShadow_986_2019" result="shape"/>
</filter>
<filter id="filter3_d_986_2019" x="75.0461" y="0" width="15.2565" height="45.2275" filterUnits="userSpaceOnUse" color-interpolation-filters="sRGB">
<feFlood flood-opacity="0" result="BackgroundImageFix"/>
<feColorMatrix in="SourceAlpha" type="matrix" values="0 0 0 0 0 0 0 0 0 0 0 0 0 0 0 0 0 0 127 0" result="hardAlpha"/>
<feOffset dy="1"/>
<feGaussianBlur stdDeviation="0.5"/>
<feComposite in2="hardAlpha" operator="out"/>
<feColorMatrix type="matrix" values="0 0 0 0 0 0 0 0 0 0 0 0 0 0 0 0 0 0 0.25 0"/>
<feBlend mode="normal" in2="BackgroundImageFix" result="effect1_dropShadow_986_2019"/>
<feBlend mode="normal" in="SourceGraphic" in2="effect1_dropShadow_986_2019" result="shape"/>
</filter>
</defs>
</svg>
