<svg width="210" height="144" viewBox="0 0 210 144" fill="none" xmlns="http://www.w3.org/2000/svg">
<g filter="url(#filter0_d_986_2079)">
<rect x="4" y="13.4873" width="200" height="120.231" rx="20" fill="#B8F3F7"/>
</g>
<rect x="20.9597" y="33.9116" width="23.1214" height="23.1214" rx="10" fill="white"/>
<rect x="49.8614" y="33.9116" width="23.1214" height="23.1214" rx="10" fill="white"/>
<rect x="78.7631" y="33.9116" width="23.1214" height="23.1214" rx="10" fill="white"/>
<rect x="107.665" y="33.9116" width="23.1214" height="23.1214" rx="10" fill="white"/>
<rect x="136.562" y="33.9116" width="23.1214" height="23.1214" rx="10" fill="white"/>
<rect x="107.661" y="60.8862" width="23.1214" height="23.1214" rx="10" fill="white"/>
<rect x="49.8571" y="91.3296" width="23.1214" height="23.1214" rx="10" fill="white"/>
<rect x="78.7592" y="91.3296" width="23.1214" height="23.1214" rx="10" fill="white"/>
<rect x="78.7631" y="60.8862" width="23.1214" height="23.1214" rx="10" fill="white"/>
<rect x="20.9597" y="91.3296" width="23.1214" height="23.1214" rx="10" fill="white"/>
<rect x="49.8614" y="60.8862" width="23.1214" height="23.1214" rx="10" fill="white"/>
<rect x="20.9597" y="60.8862" width="23.1214" height="23.1214" rx="10" fill="white"/>
<circle cx="163.923" cy="97.4954" r="23.1214" fill="#FE0000"/>
<g filter="url(#filter1_d_986_2079)">
<rect x="146.967" width="8.8632" height="28.9017" rx="4.4316" fill="#F6F6F6"/>
</g>
<g filter="url(#filter2_d_986_2079)">
<rect x="99.5684" width="8.8632" height="28.9017" rx="4.4316" fill="#F6F6F6"/>
</g>
<g filter="url(#filter3_d_986_2079)">
<rect x="52.1696" width="8.8632" height="28.9017" rx="4.4316" fill="#F6F6F6"/>
</g>
<path d="M160.719 86.8672L164.215 93.293L167.809 86.8672H173.805L167.828 97.1992L174.078 108H168.062L164.254 101.203L160.445 108H154.43L160.68 97.1992L154.703 86.8672H160.719Z" fill="white"/>
<defs>
<filter id="filter0_d_986_2079" x="0" y="13.4873" width="210" height="130.231" filterUnits="userSpaceOnUse" color-interpolation-filters="sRGB">
<feFlood flood-opacity="0" result="BackgroundImageFix"/>
<feColorMatrix in="SourceAlpha" type="matrix" values="0 0 0 0 0 0 0 0 0 0 0 0 0 0 0 0 0 0 127 0" result="hardAlpha"/>
<feOffset dx="1" dy="5"/>
<feGaussianBlur stdDeviation="2.5"/>
<feComposite in2="hardAlpha" operator="out"/>
<feColorMatrix type="matrix" values="0 0 0 0 0 0 0 0 0 0 0 0 0 0 0 0 0 0 0.2 0"/>
<feBlend mode="normal" in2="BackgroundImageFix" result="effect1_dropShadow_986_2079"/>
<feBlend mode="normal" in="SourceGraphic" in2="effect1_dropShadow_986_2079" result="shape"/>
</filter>
<filter id="filter1_d_986_2079" x="145.967" y="0" width="10.8632" height="30.9019" filterUnits="userSpaceOnUse" color-interpolation-filters="sRGB">
<feFlood flood-opacity="0" result="BackgroundImageFix"/>
<feColorMatrix in="SourceAlpha" type="matrix" values="0 0 0 0 0 0 0 0 0 0 0 0 0 0 0 0 0 0 127 0" result="hardAlpha"/>
<feOffset dy="1"/>
<feGaussianBlur stdDeviation="0.5"/>
<feComposite in2="hardAlpha" operator="out"/>
<feColorMatrix type="matrix" values="0 0 0 0 0 0 0 0 0 0 0 0 0 0 0 0 0 0 0.25 0"/>
<feBlend mode="normal" in2="BackgroundImageFix" result="effect1_dropShadow_986_2079"/>
<feBlend mode="normal" in="SourceGraphic" in2="effect1_dropShadow_986_2079" result="shape"/>
</filter>
<filter id="filter2_d_986_2079" x="98.5684" y="0" width="10.8632" height="30.9019" filterUnits="userSpaceOnUse" color-interpolation-filters="sRGB">
<feFlood flood-opacity="0" result="BackgroundImageFix"/>
<feColorMatrix in="SourceAlpha" type="matrix" values="0 0 0 0 0 0 0 0 0 0 0 0 0 0 0 0 0 0 127 0" result="hardAlpha"/>
<feOffset dy="1"/>
<feGaussianBlur stdDeviation="0.5"/>
<feComposite in2="hardAlpha" operator="out"/>
<feColorMatrix type="matrix" values="0 0 0 0 0 0 0 0 0 0 0 0 0 0 0 0 0 0 0.25 0"/>
<feBlend mode="normal" in2="BackgroundImageFix" result="effect1_dropShadow_986_2079"/>
<feBlend mode="normal" in="SourceGraphic" in2="effect1_dropShadow_986_2079" result="shape"/>
</filter>
<filter id="filter3_d_986_2079" x="51.1696" y="0" width="10.8632" height="30.9019" filterUnits="userSpaceOnUse" color-interpolation-filters="sRGB">
<feFlood flood-opacity="0" result="BackgroundImageFix"/>
<feColorMatrix in="SourceAlpha" type="matrix" values="0 0 0 0 0 0 0 0 0 0 0 0 0 0 0 0 0 0 127 0" result="hardAlpha"/>
<feOffset dy="1"/>
<feGaussianBlur stdDeviation="0.5"/>
<feComposite in2="hardAlpha" operator="out"/>
<feColorMatrix type="matrix" values="0 0 0 0 0 0 0 0 0 0 0 0 0 0 0 0 0 0 0.25 0"/>
<feBlend mode="normal" in2="BackgroundImageFix" result="effect1_dropShadow_986_2079"/>
<feBlend mode="normal" in="SourceGraphic" in2="effect1_dropShadow_986_2079" result="shape"/>
</filter>
</defs>
</svg>
