<svg width="30" height="21" viewBox="0 0 30 21" fill="none" xmlns="http://www.w3.org/2000/svg">
<path d="M15 0C24.375 0 30 10.3125 30 10.3125C30 10.3125 24.375 20.625 15 20.625C5.625 20.625 0 10.3125 0 10.3125C0 10.3125 5.625 0 15 0ZM15 1.875C8.4 1.875 3.74625 7.97062 2.20312 10.3125C3.74437 12.6525 8.39812 18.75 15 18.75C21.6 18.75 26.2537 12.6544 27.7969 10.3125C26.2556 7.9725 21.6019 1.875 15 1.875ZM15 3.75C16.7405 3.75 18.4097 4.4414 19.6404 5.67211C20.8711 6.90282 21.5625 8.57202 21.5625 10.3125C21.5625 12.053 20.8711 13.7222 19.6404 14.9529C18.4097 16.1836 16.7405 16.875 15 16.875C13.2595 16.875 11.5903 16.1836 10.3596 14.9529C9.1289 13.7222 8.4375 12.053 8.4375 10.3125C8.4375 8.57202 9.1289 6.90282 10.3596 5.67211C11.5903 4.4414 13.2595 3.75 15 3.75ZM15 5.625C13.7573 5.62649 12.5658 6.12083 11.6871 6.99958C10.8083 7.87834 10.314 9.06975 10.3125 10.3125C10.3125 12.8962 12.4144 15 15 15C17.5856 15 19.6875 12.8962 19.6875 10.3125C19.6875 7.72875 17.5856 5.625 15 5.625Z" fill="url(#paint0_linear_577_2543)"/>
<defs>
<linearGradient id="paint0_linear_577_2543" x1="15" y1="0" x2="15" y2="20.625" gradientUnits="userSpaceOnUse">
<stop stop-color="#FE713E"/>
<stop offset="1" stop-color="#FFD643"/>
</linearGradient>
</defs>
</svg>
