<svg width="57" height="50" viewBox="0 0 57 50" fill="none" xmlns="http://www.w3.org/2000/svg">
<path d="M52.6048 4.42036C51.212 3.01898 49.5583 1.9073 47.7383 1.14884C45.9182 0.390381 43.9674 0 41.9973 0C40.0271 0 38.0763 0.390381 36.2562 1.14884C34.4362 1.9073 32.7825 3.01898 31.3898 4.42036L28.4993 7.32737L25.6088 4.42036C22.7955 1.59099 18.9799 0.00146656 15.0013 0.00146659C11.0227 0.00146662 7.20706 1.59099 4.39377 4.42036C1.58049 7.24973 2.96428e-08 11.0872 0 15.0885C-2.96428e-08 19.0899 1.58049 22.9273 4.39377 25.7567L7.28425 28.6637L28.4993 50L49.7143 28.6637L52.6048 25.7567C53.9982 24.356 55.1035 22.6928 55.8577 20.8624C56.6118 19.0319 57 17.0699 57 15.0885C57 13.1071 56.6118 11.1452 55.8577 9.31467C55.1035 7.4842 53.9982 5.82109 52.6048 4.42036Z" fill="url(#paint0_linear_1788_4050)"/>
<defs>
<linearGradient id="paint0_linear_1788_4050" x1="1.14" y1="5.68182" x2="42.0725" y2="39.9014" gradientUnits="userSpaceOnUse">
<stop offset="0.177289" stop-color="#FF0000" stop-opacity="0.33"/>
<stop offset="1" stop-color="#FF0000"/>
</linearGradient>
</defs>
</svg>
