<svg width="21" height="25" viewBox="0 0 21 25" fill="none" xmlns="http://www.w3.org/2000/svg">
<path d="M2.70996 0.0585346C2.50977 0.170839 2.49512 0.244081 2.49023 0.961855V1.6601H1.41113C0.322266 1.6601 0.195312 1.67963 0.0634766 1.85053C0.0146484 1.90912 0.00488281 4.4433 0 13.3154C0 19.5751 0.0146484 24.7363 0.0292969 24.7802C0.117188 25.0097 -0.258789 24.9999 9.15527 24.9999C15.7666 24.9999 18.0029 24.9853 18.0811 24.9413C18.3008 24.829 18.3057 24.7851 18.3105 23.6181V22.5097H19.3555C20.415 22.5097 20.6152 22.4853 20.7324 22.3242C20.7861 22.2558 20.7959 20.7128 20.8008 14.1601V6.07904L17.7588 3.04193L14.7217 -5.91278e-05H8.76465C4.375 0.00482368 2.7832 0.0194721 2.70996 0.0585346ZM14.1602 3.60834V6.39154L14.2773 6.52826L14.3945 6.66498L17.1826 6.67963L19.9707 6.69428V14.1845V21.6796H11.6455H3.32031V11.2548V0.830019H8.74023H14.1602V3.60834ZM17.1875 3.63764L19.3604 5.81049H17.1729H14.9902V3.63764C14.9902 2.44135 14.9951 1.46478 15.0049 1.46478C15.0098 1.46478 15.9912 2.44135 17.1875 3.63764ZM2.49023 12.3486V22.2119L2.60742 22.3486L2.72461 22.4853L10.1025 22.4999L17.4805 22.5097V23.3398V24.1699H9.15527H0.830078V13.33V2.49018H1.66016H2.49023V12.3486Z" fill="#009788"/>
<path d="M5.1748 3.82129C4.99902 3.95801 4.98438 4.07031 4.98438 5.44238V6.79492L5.12598 6.93652L5.26758 7.07812H6.65918H8.0459L8.17773 6.95605L8.30469 6.83887V5.41797V3.99707L8.18262 3.87988L8.06543 3.75781H6.65918C5.62891 3.7627 5.2334 3.77734 5.1748 3.82129ZM7.47461 5.41797V6.24805H6.64453H5.81445V5.41797V4.58789H6.64453H7.47461V5.41797Z" fill="#009788"/>
<path d="M5.22498 7.9668C4.96619 8.10352 4.92225 8.44043 5.13709 8.64062C5.22987 8.72852 5.30799 8.73828 5.82069 8.73828C6.37244 8.73828 6.40662 8.7334 6.51893 8.61621C6.68494 8.45508 6.68494 8.21094 6.51404 8.0498C6.40174 7.94238 6.34315 7.93262 5.86951 7.91797C5.50819 7.9082 5.30799 7.92285 5.22498 7.9668Z" fill="#009788"/>
<path d="M7.72534 7.96081C7.57397 8.02429 7.45679 8.30749 7.51538 8.46863C7.62769 8.75671 7.30054 8.74206 12.9207 8.74206H18.0525L18.1843 8.61511C18.3455 8.44909 18.3503 8.25378 18.1941 8.07312L18.0769 7.9364L12.9548 7.92663C9.89819 7.92175 7.7937 7.9364 7.72534 7.96081Z" fill="#009788"/>
<path d="M5.23218 10.4687C4.96362 10.5908 4.90991 10.918 5.12476 11.1328C5.21265 11.2207 5.29077 11.2305 5.80835 11.2305C6.36987 11.2305 6.40405 11.2256 6.51636 11.1084C6.67261 10.957 6.67261 10.7422 6.52124 10.5615C6.40893 10.4346 6.38452 10.4248 5.90112 10.415C5.53003 10.4004 5.34936 10.4199 5.23218 10.4687Z" fill="#009788"/>
<path d="M7.73819 10.4687C7.64054 10.5127 7.56729 10.5908 7.53311 10.6885C7.46964 10.8643 7.49405 10.9619 7.63565 11.1182L7.73331 11.2305H12.9042H18.0751L18.1923 11.1084C18.3485 10.957 18.3485 10.7422 18.1972 10.5615L18.08 10.4248L12.9823 10.415C8.76847 10.4053 7.86515 10.415 7.73819 10.4687Z" fill="#009788"/>
<path d="M5.12809 13.0378C4.99137 13.1745 4.96208 13.3454 5.04997 13.5163C5.15739 13.7263 5.382 13.7849 5.94352 13.7604C6.37809 13.7409 6.41716 13.7311 6.52458 13.6042C6.67594 13.4284 6.67594 13.2136 6.51969 13.0622C6.40739 12.945 6.37321 12.9401 5.81169 12.9401C5.29411 12.9401 5.21598 12.9499 5.12809 13.0378Z" fill="#009788"/>
<path d="M7.65691 13.0062C7.39323 13.2064 7.47624 13.6264 7.79851 13.7191C7.93034 13.7582 9.42937 13.768 13.028 13.7582L18.0768 13.7435L18.194 13.6068C18.3454 13.4262 18.3454 13.2113 18.1891 13.06L18.0719 12.9379H12.9059C8.74577 12.9428 7.72526 12.9525 7.65691 13.0062Z" fill="#009788"/>
<path d="M5.13298 15.5287C4.99138 15.6605 4.95231 15.8363 5.03532 15.9975C5.13786 16.2221 5.28435 16.266 5.8654 16.2514C6.33903 16.2367 6.39763 16.2269 6.50993 16.1195C6.68083 15.9584 6.68083 15.7143 6.51482 15.5531C6.40251 15.4359 6.36833 15.4311 5.81657 15.4311C5.30388 15.4311 5.22575 15.4408 5.13298 15.5287Z" fill="#009788"/>
<path d="M7.63103 15.5381C7.57732 15.6016 7.51873 15.6895 7.50408 15.7383C7.45037 15.8799 7.58709 16.1387 7.74334 16.2022C7.85076 16.2461 9.13006 16.2608 12.9777 16.251L18.0754 16.2364L18.1926 16.0996C18.3439 15.9239 18.3439 15.7237 18.1877 15.5577L18.0705 15.4307H12.8996H7.72869L7.63103 15.5381Z" fill="#009788"/>
<path d="M5.12598 18.0615C5.04297 18.1494 4.98438 18.2568 4.98438 18.335C4.98438 18.4131 5.04297 18.5205 5.12598 18.6084C5.26758 18.7451 5.28223 18.75 5.79004 18.75C6.30762 18.75 6.46387 18.7109 6.58105 18.5596C6.68848 18.4229 6.6543 18.1885 6.51758 18.0469C6.39062 17.9248 6.36621 17.9199 5.8291 17.9199C5.27734 17.9199 5.26758 17.9199 5.12598 18.0615Z" fill="#009788"/>
<path d="M7.63672 18.0371C7.53418 18.125 7.5 18.1934 7.5 18.335C7.5 18.4766 7.53418 18.5449 7.63672 18.6328L7.76855 18.75H12.8711C18.1348 18.75 18.1006 18.75 18.2471 18.5596C18.3252 18.457 18.3252 18.2129 18.2471 18.1104C18.1006 17.9199 18.1348 17.9199 12.8711 17.9199H7.76855L7.63672 18.0371Z" fill="#009788"/>
</svg>
