<svg width="40" height="40" viewBox="0 0 30 30" fill="none" xmlns="http://www.w3.org/2000/svg">
<circle cx="15" cy="15" r="15" fill="#009788"/>
<path d="M18 14.6475C17.8941 14.5429 17.7513 14.4842 17.6025 14.4842C17.4537 14.4842 17.3109 14.5429 17.205 14.6475L13.9425 17.91L12.75 16.7175C12.6441 16.6129 12.5013 16.5542 12.3525 16.5542C12.2037 16.5542 12.0609 16.6129 11.955 16.7175C11.7375 16.935 11.7375 17.295 11.955 17.5125L13.41 18.9675C13.7025 19.26 14.175 19.26 14.4675 18.9675L17.9925 15.4425C18.2175 15.225 18.2175 14.865 18 14.6475ZM20.25 9H19.5V8.25C19.5 7.8375 19.1625 7.5 18.75 7.5C18.3375 7.5 18 7.8375 18 8.25V9H12V8.25C12 7.8375 11.6625 7.5 11.25 7.5C10.8375 7.5 10.5 7.8375 10.5 8.25V9H9.75C8.9175 9 8.2575 9.675 8.2575 10.5L8.25 21C8.25 21.3978 8.40804 21.7794 8.68934 22.0607C8.97064 22.342 9.35218 22.5 9.75 22.5H20.25C21.075 22.5 21.75 21.825 21.75 21V10.5C21.75 9.675 21.075 9 20.25 9ZM19.5 21H10.5C10.0875 21 9.75 20.6625 9.75 20.25V12.75H20.25V20.25C20.25 20.6625 19.9125 21 19.5 21Z" fill="white"/>
</svg>
