<svg width="22" height="25" viewBox="0 0 22 25" fill="none" xmlns="http://www.w3.org/2000/svg">
<path d="M10.1641 0.999023V2H10.8965H11.6289V0.999023V-0.00195312H10.8965H10.1641V0.999023Z" fill="#009788"/>
<path d="M5.50077 1.42715C5.1785 1.6127 4.8953 1.7836 4.87577 1.80313C4.84647 1.83243 5.6619 3.33633 5.8035 3.51211C5.82304 3.53653 5.99882 3.43887 6.658 3.05313L7.0828 2.80411L6.59452 1.9545C6.32108 1.48575 6.09647 1.09512 6.09647 1.09512C6.09159 1.09024 5.82304 1.24161 5.50077 1.42715Z" fill="#009788"/>
<path d="M15.2041 1.93915L14.7109 2.80341L15.1504 3.0622C15.8389 3.46259 15.9756 3.53583 15.9902 3.51142C16.0244 3.46747 16.9522 1.84638 16.9522 1.83173C16.9522 1.82197 16.7373 1.69013 16.4785 1.53388C16.2148 1.38251 15.9316 1.2165 15.8486 1.16767L15.7022 1.07978L15.2041 1.93915Z" fill="#009788"/>
<path d="M10.2609 3.51563C7.84879 3.76465 5.73942 5.13184 4.53337 7.2168C3.33708 9.30176 3.24919 11.8799 4.30388 14.0869C4.61149 14.7363 5.12419 15.4541 5.73942 16.1035C6.32536 16.7188 6.51579 17.0166 6.66715 17.5244C6.73551 17.7539 6.74528 18.1104 6.74528 19.9805V22.168H7.49723H8.2443L8.2736 22.5195C8.36637 23.6035 9.07438 24.5068 10.1047 24.8633C10.5685 25.0195 11.3205 25.0195 11.7843 24.8633C12.4093 24.6484 13.0002 24.1553 13.3078 23.584C13.464 23.3008 13.63 22.6758 13.63 22.3779V22.168H14.3869H15.1437V19.9805C15.1437 18.6621 15.1681 17.71 15.1974 17.5781C15.3 17.124 15.5294 16.7529 16.0177 16.2402C16.8185 15.4004 17.1408 14.9609 17.5363 14.1699C18.3712 12.5049 18.5421 10.5664 18.0197 8.7793C17.8293 8.11524 17.2824 7.02149 16.8771 6.48438C15.6955 4.91699 13.9962 3.88184 12.1408 3.58887C11.5451 3.4961 10.7638 3.4668 10.2609 3.51563ZM11.5207 4.98047C13.591 5.20508 15.3488 6.43067 16.2423 8.27149C17.0675 9.96094 17.0627 11.8359 16.2375 13.4912C15.925 14.1162 15.6906 14.4385 15.09 15.0732C14.3087 15.8936 13.9816 16.4209 13.7961 17.1582L13.7179 17.4805H12.6974H11.6769V16.1963V14.9072L12.6681 14.2773L13.6545 13.6426L13.6691 12.5342L13.6789 11.4258H12.9464H12.214V12.1289V12.8271L11.6183 13.2129C11.2863 13.4229 10.9836 13.5938 10.9445 13.5938C10.9054 13.5938 10.6027 13.4229 10.2755 13.2129L9.67496 12.8271V12.1289V11.4258H8.94254H8.21012L8.21989 12.5342L8.23454 13.6377L9.22575 14.2773L10.2121 14.9121V16.1963V17.4805H9.19645H8.18082L8.06852 17.0996C7.84879 16.3379 7.51676 15.8154 6.76969 15.0488C5.61735 13.8574 5.0363 12.4609 5.0363 10.8643C5.0363 8.76465 6.16423 6.81641 8.00016 5.74219C8.65446 5.36133 9.55778 5.06836 10.3488 4.98535C10.8957 4.92676 10.9982 4.92676 11.5207 4.98047ZM13.6789 19.8242V20.7031H10.9445H8.21012V19.8242V18.9453H10.9445H13.6789V19.8242ZM12.1652 22.3291C12.1652 22.959 11.5793 23.5352 10.9445 23.5352C10.3097 23.5352 9.72379 22.959 9.72379 22.3291V22.168H10.9445H12.1652V22.3291Z" fill="#009788"/>
<path d="M1.47017 5.44838C1.27486 5.78529 1.12349 6.0685 1.13326 6.07338C1.14303 6.08314 1.52388 6.30287 1.9731 6.56654C2.51021 6.87416 2.81295 7.02553 2.84713 6.99135C2.89595 6.94252 3.56978 5.79017 3.55513 5.78041C3.38424 5.6681 1.89986 4.83314 1.86568 4.83314C1.84127 4.83314 1.6606 5.11146 1.47017 5.44838Z" fill="#009788"/>
<path d="M19.418 5.09905C19.1787 5.24066 18.8076 5.4555 18.6025 5.57269L18.2266 5.78753L18.5586 6.3637C18.7393 6.6762 18.9102 6.95941 18.9395 6.9887C18.9785 7.02777 19.2129 6.91546 19.8184 6.56878C20.2676 6.30999 20.6484 6.09027 20.6582 6.0805C20.6924 6.04632 19.9697 4.83538 19.916 4.83538C19.8818 4.84027 19.6621 4.95745 19.418 5.09905Z" fill="#009788"/>
<path d="M0.0146484 10.874L0.0292969 11.5967L1.02051 11.6113L2.00684 11.6211V10.8887V10.1562H1.00586H0L0.0146484 10.874Z" fill="#009788"/>
<path d="M19.7812 10.8887V11.6211L20.7725 11.6113L21.7588 11.5967L21.7734 10.874L21.7881 10.1562H20.7822H19.7812V10.8887Z" fill="#009788"/>
</svg>
