<svg width="43" height="40" viewBox="0 0 33 30" fill="none" xmlns="http://www.w3.org/2000/svg">
<path d="M12.633 1.42694C2.34116 3.37588 0.917411 11.9101 0.732275 14.2871C0.708006 14.5987 0.474357 14.9265 0.221058 15.1096C0.0832097 15.2093 0 15.3776 0 15.5477V17.0412C0 17.5935 0.447715 18.0412 1 18.0412H30.5025C31.0548 18.0412 31.5025 17.5952 31.5025 17.043V6.80539C31.5025 6.64171 31.5461 6.48514 31.6118 6.33523C32.237 4.90849 31.3097 4.05443 30.5853 3.71802C30.4403 3.65065 30.311 3.54946 30.2303 3.41136L30.2005 3.36039C29.9559 2.9416 29.341 2.95964 29.1333 3.39795C29.0607 3.55127 28.9408 3.65966 28.7877 3.73288C27.267 4.46049 27.4073 5.58618 27.7821 6.27086C27.8901 6.46818 27.9728 6.68281 27.9728 6.90777V12.9309C27.9728 13.0358 27.9175 13.1209 27.8125 13.1209C27.7188 13.1209 27.6091 13.0502 27.5939 12.9577C26.2374 4.6684 19.7257 1.85305 16.3107 1.41757C16.0912 1.38958 15.8836 1.29985 15.7208 1.14999L15.1425 0.61759C14.7625 0.267673 14.1788 0.265239 13.7913 0.606826C13.5389 0.829278 13.2776 1.05633 13.0769 1.2237C12.9511 1.32871 12.7941 1.39644 12.633 1.42694Z" fill="#009788"/>
<path d="M3.32 22.57L1.16 27.65C1.11333 27.7767 1.04 27.8767 0.94 27.95C0.846667 28.0167 0.743333 28.05 0.63 28.05C0.45 28.05 0.316667 28 0.23 27.9C0.143333 27.8 0.1 27.6767 0.1 27.53C0.1 27.47 0.11 27.4067 0.13 27.34L2.62 21.36C2.67333 21.2267 2.75333 21.1233 2.86 21.05C2.97333 20.9767 3.09333 20.9467 3.22 20.96C3.34 20.96 3.45 20.9967 3.55 21.07C3.65667 21.1367 3.73333 21.2333 3.78 21.36L6.24 27.22C6.27333 27.3067 6.29 27.3867 6.29 27.46C6.29 27.64 6.23 27.7833 6.11 27.89C5.99667 27.9967 5.87 28.05 5.73 28.05C5.61 28.05 5.5 28.0133 5.4 27.94C5.30667 27.8667 5.23333 27.7667 5.18 27.64L3.03 22.63L3.32 22.57ZM1.47 26.43L2.02 25.28H4.72L4.91 26.43H1.47ZM10.6879 28.1C10.1812 28.1 9.70789 28.0067 9.26789 27.82C8.82789 27.6333 8.44122 27.3767 8.10789 27.05C7.77456 26.7167 7.51122 26.3333 7.31789 25.9C7.13122 25.4667 7.03789 25 7.03789 24.5C7.03789 24 7.13122 23.5333 7.31789 23.1C7.51122 22.6667 7.77456 22.2867 8.10789 21.96C8.44122 21.6267 8.82789 21.3667 9.26789 21.18C9.70789 20.9933 10.1812 20.9 10.6879 20.9C11.0012 20.9 11.3046 20.9333 11.5979 21C11.8912 21.0667 12.1612 21.1667 12.4079 21.3C12.5079 21.3533 12.5812 21.4267 12.6279 21.52C12.6812 21.6067 12.7079 21.6967 12.7079 21.79C12.7079 21.95 12.6546 22.0933 12.5479 22.22C12.4412 22.3467 12.3046 22.41 12.1379 22.41C12.0846 22.41 12.0279 22.4033 11.9679 22.39C11.9146 22.3767 11.8612 22.3567 11.8079 22.33C11.6412 22.2567 11.4646 22.2 11.2779 22.16C11.0912 22.12 10.8946 22.1 10.6879 22.1C10.2546 22.1 9.85789 22.21 9.49789 22.43C9.14456 22.6433 8.86122 22.9333 8.64789 23.3C8.44122 23.66 8.33789 24.06 8.33789 24.5C8.33789 24.9333 8.44122 25.3333 8.64789 25.7C8.86122 26.0667 9.14456 26.36 9.49789 26.58C9.85789 26.7933 10.2546 26.9 10.6879 26.9C10.8879 26.9 11.1079 26.88 11.3479 26.84C11.5879 26.8 11.7846 26.7467 11.9379 26.68L11.8479 26.98V25.27L12.0179 25.42H10.9079C10.7346 25.42 10.5879 25.3633 10.4679 25.25C10.3546 25.1367 10.2979 24.9933 10.2979 24.82C10.2979 24.6467 10.3546 24.5033 10.4679 24.39C10.5879 24.2767 10.7346 24.22 10.9079 24.22H12.5479C12.7212 24.22 12.8646 24.28 12.9779 24.4C13.0912 24.5133 13.1479 24.6567 13.1479 24.83V26.95C13.1479 27.0833 13.1146 27.1933 13.0479 27.28C12.9879 27.3667 12.9179 27.4367 12.8379 27.49C12.5312 27.6767 12.1946 27.8267 11.8279 27.94C11.4679 28.0467 11.0879 28.1 10.6879 28.1ZM17.5408 21C17.8874 21 18.2108 21.1 18.5108 21.3C18.8174 21.5 19.0641 21.77 19.2508 22.11C19.4374 22.45 19.5308 22.83 19.5308 23.25C19.5308 23.6633 19.4374 24.04 19.2508 24.38C19.0641 24.72 18.8174 24.9933 18.5108 25.2C18.2108 25.4 17.8874 25.5 17.5408 25.5H15.7008L15.8008 25.32V27.39C15.8008 27.5633 15.7474 27.71 15.6408 27.83C15.5341 27.9433 15.3941 28 15.2208 28C15.0541 28 14.9174 27.9433 14.8108 27.83C14.7041 27.71 14.6508 27.5633 14.6508 27.39V21.61C14.6508 21.4367 14.7074 21.2933 14.8208 21.18C14.9408 21.06 15.0874 21 15.2608 21H17.5408ZM17.5408 24.36C17.6674 24.36 17.7908 24.3067 17.9108 24.2C18.0308 24.0933 18.1308 23.9567 18.2108 23.79C18.2908 23.6167 18.3308 23.4367 18.3308 23.25C18.3308 23.0567 18.2908 22.8767 18.2108 22.71C18.1308 22.5433 18.0308 22.41 17.9108 22.31C17.7908 22.2033 17.6674 22.15 17.5408 22.15H15.6808L15.8008 21.97V24.52L15.6908 24.36H17.5408ZM23.1458 22.57L20.9858 27.65C20.9391 27.7767 20.8658 27.8767 20.7658 27.95C20.6724 28.0167 20.5691 28.05 20.4558 28.05C20.2758 28.05 20.1424 28 20.0558 27.9C19.9691 27.8 19.9258 27.6767 19.9258 27.53C19.9258 27.47 19.9358 27.4067 19.9558 27.34L22.4458 21.36C22.4991 21.2267 22.5791 21.1233 22.6858 21.05C22.7991 20.9767 22.9191 20.9467 23.0458 20.96C23.1658 20.96 23.2758 20.9967 23.3758 21.07C23.4824 21.1367 23.5591 21.2333 23.6058 21.36L26.0658 27.22C26.0991 27.3067 26.1158 27.3867 26.1158 27.46C26.1158 27.64 26.0558 27.7833 25.9358 27.89C25.8224 27.9967 25.6958 28.05 25.5558 28.05C25.4358 28.05 25.3258 28.0133 25.2258 27.94C25.1324 27.8667 25.0591 27.7667 25.0058 27.64L22.8558 22.63L23.1458 22.57ZM21.2958 26.43L21.8458 25.28H24.5458L24.7358 26.43H21.2958ZM28.5125 27.39C28.5125 27.5633 28.4492 27.71 28.3225 27.83C28.1958 27.9433 28.0492 28 27.8825 28C27.6958 28 27.5458 27.9433 27.4325 27.83C27.3192 27.71 27.2625 27.5633 27.2625 27.39V21.61C27.2625 21.4367 27.3225 21.2933 27.4425 21.18C27.5625 21.06 27.7158 21 27.9025 21C28.0625 21 28.2025 21.06 28.3225 21.18C28.4492 21.2933 28.5125 21.4367 28.5125 21.61V27.39ZM31.5664 27.39C31.5664 27.5633 31.5031 27.71 31.3764 27.83C31.2497 27.9433 31.1031 28 30.9364 28C30.7497 28 30.5997 27.9433 30.4864 27.83C30.3731 27.71 30.3164 27.5633 30.3164 27.39V21.61C30.3164 21.4367 30.3764 21.2933 30.4964 21.18C30.6164 21.06 30.7697 21 30.9564 21C31.1164 21 31.2564 21.06 31.3764 21.18C31.5031 21.2933 31.5664 21.4367 31.5664 21.61V27.39Z" fill="#009788"/>
</svg>
