<svg width="66" height="66" viewBox="0 0 66 66" fill="none" xmlns="http://www.w3.org/2000/svg">
<g filter="url(#filter0_d_598_2421)">
<rect x="5" y="4" width="56" height="56" rx="13" fill="white"/>
</g>
<circle cx="32.5" cy="31.5" r="23.5" fill="#009788"/>
<path fill-rule="evenodd" clip-rule="evenodd" d="M22 27.75C22 27.0207 22.2897 26.3212 22.8055 25.8055C23.3212 25.2897 24.0207 25 24.75 25H35.0625C35.7295 24.9999 36.3738 25.2423 36.8754 25.6819C37.377 26.1215 37.7017 26.7285 37.7891 27.3897L42.0654 25.4895C42.2747 25.3962 42.504 25.3568 42.7324 25.3747C42.9609 25.3926 43.1812 25.4673 43.3735 25.592C43.5657 25.7168 43.7237 25.8876 43.8331 26.0889C43.9425 26.2902 43.9999 26.5157 44 26.7449V37.0051C43.9998 37.2341 43.9424 37.4594 43.8331 37.6606C43.7237 37.8617 43.5659 38.0324 43.3738 38.1571C43.1818 38.2818 42.9617 38.3566 42.7334 38.3746C42.5052 38.3927 42.276 38.3535 42.0667 38.2605L37.7891 36.3603C37.7017 37.0215 37.377 37.6285 36.8754 38.0681C36.3738 38.5077 35.7295 38.7501 35.0625 38.75H24.75C24.0207 38.75 23.3212 38.4603 22.8055 37.9445C22.2897 37.4288 22 36.7293 22 36V27.75Z" fill="white"/>
<defs>
<filter id="filter0_d_598_2421" x="0" y="0" width="66" height="66" filterUnits="userSpaceOnUse" color-interpolation-filters="sRGB">
<feFlood flood-opacity="0" result="BackgroundImageFix"/>
<feColorMatrix in="SourceAlpha" type="matrix" values="0 0 0 0 0 0 0 0 0 0 0 0 0 0 0 0 0 0 127 0" result="hardAlpha"/>
<feOffset dy="1"/>
<feGaussianBlur stdDeviation="2.5"/>
<feComposite in2="hardAlpha" operator="out"/>
<feColorMatrix type="matrix" values="0 0 0 0 0 0 0 0 0 0 0 0 0 0 0 0 0 0 0.25 0"/>
<feBlend mode="normal" in2="BackgroundImageFix" result="effect1_dropShadow_598_2421"/>
<feBlend mode="normal" in="SourceGraphic" in2="effect1_dropShadow_598_2421" result="shape"/>
</filter>
</defs>
</svg>
