<svg width="24" height="25" viewBox="0 0 24 25" fill="none" xmlns="http://www.w3.org/2000/svg">
<path d="M2.80158 0.070148C1.93243 0.280109 1.21466 1.0223 1.034 1.89632C0.960754 2.23812 0.955872 20.2264 1.02911 20.6121C1.15118 21.2713 1.66876 21.9598 2.27911 22.2723C2.67462 22.4676 2.86017 22.4774 3.01642 22.2967C3.22638 22.0526 3.12872 21.8524 2.71857 21.6668C2.36212 21.5008 2.03497 21.1932 1.87384 20.8563L1.73712 20.5828V11.2811V1.97933L1.84943 1.74007C2.03009 1.34944 2.26447 1.09554 2.63068 0.919757L2.95783 0.758624L9.8133 0.743976C17.3475 0.729328 16.9276 0.714679 17.3963 1.02718C17.6746 1.21273 17.8602 1.4471 18.0018 1.80355C18.1776 2.23812 18.3778 2.34066 18.6317 2.14046C18.7489 2.04769 18.7635 2.01351 18.744 1.80355C18.6707 1.05648 17.8309 0.236164 16.9569 0.0554995C16.5614 -0.0275083 3.14337 -0.0128598 2.80158 0.070148Z" fill="#009788"/>
<path d="M5.81152 1.75195C5.45508 1.86426 5.17188 2.11328 4.97656 2.48926C4.86914 2.68945 4.85938 2.76758 4.85938 3.44141C4.85938 4.08105 4.87402 4.20313 4.96191 4.39355C5.1084 4.71094 5.29883 4.91602 5.58691 5.06738L5.83594 5.19922H9.91309H13.9902L14.2393 5.06738C14.5273 4.91602 14.7178 4.71094 14.8643 4.39355C14.9521 4.20313 14.9668 4.07617 14.9668 3.46582C14.9668 2.83105 14.9521 2.7334 14.8545 2.51367C14.7178 2.2207 14.5518 2.03516 14.2588 1.86426L14.0391 1.73242L9.98633 1.72266C7.75977 1.71777 5.87988 1.73242 5.81152 1.75195ZM13.9512 2.53809C14.2002 2.68945 14.2344 2.79199 14.2344 3.44141C14.2344 4.11523 14.1758 4.28125 13.8975 4.41309C13.7461 4.48145 13.3457 4.49121 9.91797 4.49121C5.76758 4.49121 5.875 4.49609 5.68945 4.21777C5.61621 4.10547 5.5918 3.96875 5.57715 3.56348C5.55762 2.93848 5.61621 2.71387 5.85547 2.55273L6.02148 2.44043H9.9082C13.6729 2.44043 13.7998 2.44531 13.9512 2.53809Z" fill="#009788"/>
<path d="M18.2464 3.33528L18.1195 3.46223V10.0931V16.724L15.7855 19.0677C14.4964 20.3568 13.3978 21.4945 13.3392 21.5921L13.2269 21.7777H8.87141C5.81477 21.7777 4.46712 21.7923 4.35481 21.8314C4.09602 21.9241 4.0179 22.2269 4.20344 22.4124C4.3011 22.5101 4.36458 22.5101 8.62239 22.5101C11.0003 22.5101 12.9437 22.5247 12.9437 22.5394C12.9437 22.5589 12.8753 22.8031 12.7923 23.0863C12.6702 23.4866 12.6458 23.6527 12.6654 23.8529C12.7288 24.4583 13.1927 24.9222 13.7982 24.9857C14.0081 25.0101 14.1888 24.971 14.8284 24.7806C15.2533 24.6585 15.7367 24.4876 15.8978 24.3997C16.1468 24.2728 16.7718 23.6673 19.9798 20.4642C23.0413 17.4027 23.7933 16.6263 23.8861 16.431C23.974 16.2357 23.9984 16.1038 23.9984 15.7718C23.9984 15.1956 23.9007 15.0003 23.3099 14.3949C22.6898 13.765 22.4603 13.6478 21.8792 13.6527C21.2347 13.6527 21.1517 13.7113 19.9163 14.9368L18.8519 15.9866V9.73176C18.8519 3.84798 18.847 3.472 18.7689 3.37434C18.7201 3.32063 18.6126 3.25716 18.5247 3.24251C18.3978 3.21809 18.3441 3.23762 18.2464 3.33528ZM22.2113 14.429C22.4456 14.5316 23.0853 15.1566 23.2025 15.4056C23.4124 15.8548 23.2904 16.1575 22.6263 16.807L22.1478 17.2855L21.2542 16.3919L20.3607 15.4984L20.8685 15.0003C21.5277 14.3558 21.7718 14.2484 22.2113 14.429ZM20.7708 16.9339L21.6351 17.7982L21.1956 18.2376L20.7562 18.6771L19.8675 17.7835L18.974 16.8949L19.389 16.4798C19.6136 16.2503 19.8236 16.0648 19.8529 16.0648C19.8822 16.0648 20.2923 16.4554 20.7708 16.9339ZM18.1097 21.3284C16.9476 22.4906 15.9368 23.4866 15.8685 23.5355L15.7464 23.6282L14.8724 22.7542L13.9984 21.8753L16.2152 19.6536L18.4368 17.432L19.3255 18.3206L20.2191 19.2142L18.1097 21.3284ZM14.6185 24.0824C14.013 24.2728 13.8665 24.2923 13.6859 24.1995C13.5296 24.1214 13.3831 23.9017 13.3831 23.7552C13.3831 23.7113 13.4515 23.4329 13.5394 23.14L13.6908 22.6029L14.3695 23.2767L15.0433 23.9505L14.6185 24.0824Z" fill="#009788"/>
<path d="M17.2285 19.9072C16.6328 20.498 16.5547 20.5957 16.5547 20.7373C16.5547 20.9473 16.7012 21.0938 16.9111 21.0938C17.0527 21.0938 17.1504 21.0156 17.7412 20.4199C18.3027 19.8535 18.4102 19.7217 18.4102 19.5947C18.4102 19.4141 18.2344 19.2383 18.0439 19.2383C17.9316 19.2383 17.7803 19.3604 17.2285 19.9072Z" fill="#009788"/>
<path d="M5.76758 7.44824L4.7666 8.44922L4.41504 8.09766C4.13184 7.81934 4.03906 7.75098 3.91699 7.75098C3.70703 7.75098 3.57031 7.8877 3.57031 8.10254C3.57031 8.25391 3.62402 8.32715 4.09766 8.80078C4.52734 9.23047 4.64941 9.32812 4.7666 9.32812C4.88867 9.32812 5.09375 9.14746 6.09473 8.14648C7.16406 7.08203 7.28125 6.94531 7.28125 6.80371C7.28125 6.59375 7.13477 6.44727 6.92969 6.44727C6.79297 6.44727 6.65625 6.56445 5.76758 7.44824Z" fill="#009788"/>
<path d="M9.20377 7.88282C8.96939 7.98535 8.9108 8.27344 9.08658 8.44922C9.18424 8.54688 9.24772 8.54688 12.3288 8.54688H15.4782L15.5759 8.41992C15.7077 8.24903 15.7028 8.1416 15.5612 7.97559L15.444 7.83887L12.3971 7.82911C9.92155 7.81934 9.32584 7.82911 9.20377 7.88282Z" fill="#009788"/>
<path d="M4.95367 11.2988C4.5191 11.4404 4.13824 11.7822 3.9527 12.1973C3.81598 12.4951 3.80621 13.1152 3.93317 13.4033C4.21149 14.0479 4.7486 14.4092 5.42731 14.4141C6.06696 14.4141 6.61383 14.0674 6.88238 13.4863C7.06793 13.0859 7.06793 12.5439 6.8775 12.1533C6.72125 11.8262 6.38922 11.5088 6.07184 11.3623C5.78375 11.2402 5.23688 11.2061 4.95367 11.2988ZM5.81305 12.0606C6.6236 12.4707 6.33551 13.6816 5.42731 13.6816C4.82184 13.6816 4.40192 13.0859 4.61676 12.5293C4.80231 12.041 5.35406 11.8262 5.81305 12.0606Z" fill="#009788"/>
<path d="M9.11249 12.5732C8.95624 12.7246 8.95136 12.9346 9.10273 13.0762L9.21503 13.1836H12.3303H15.4406L15.5578 13.0615C15.6262 12.998 15.6799 12.9102 15.6799 12.8711C15.6799 12.7344 15.5725 12.5586 15.4504 12.5049C15.3674 12.4658 14.4152 12.4512 12.2814 12.4512H9.22968L9.11249 12.5732Z" fill="#009788"/>
<path d="M4.98633 15.9141C4.54688 16.0557 4.13184 16.4268 3.94629 16.8369C3.86816 17.0078 3.84375 17.1641 3.84375 17.457C3.84375 17.75 3.86816 17.9062 3.94629 18.0771C4.08301 18.3799 4.41504 18.7314 4.71778 18.8877C4.93262 19.0049 5.02051 19.0195 5.42578 19.0195C5.83106 19.0195 5.91895 19.0049 6.13379 18.8877C6.43653 18.7314 6.76856 18.3799 6.90528 18.0771C7.05177 17.7549 7.05177 17.1592 6.90528 16.8369C6.76368 16.5293 6.43653 16.1826 6.13379 16.0264C5.94336 15.9287 5.80176 15.8994 5.49903 15.8896C5.28418 15.8799 5.05469 15.8896 4.98633 15.9141ZM5.9043 16.7344C6.35352 17.0664 6.417 17.6279 6.05567 18.043C5.875 18.248 5.63575 18.3311 5.31836 18.3018C4.80567 18.248 4.44434 17.7256 4.59082 17.2324C4.65918 17.0029 4.85938 16.7588 5.05957 16.6709C5.26953 16.5732 5.7334 16.6074 5.9043 16.7344Z" fill="#009788"/>
<path d="M9.10645 17.2139C9.03809 17.2773 8.98438 17.3896 8.98438 17.458C8.98438 17.5264 9.03809 17.6387 9.10645 17.7021L9.22363 17.8242H12.3193C15.2734 17.8242 15.4248 17.8193 15.5322 17.7314C15.6885 17.6045 15.6885 17.3115 15.5322 17.1846C15.4248 17.0967 15.2734 17.0918 12.3193 17.0918H9.22363L9.10645 17.2139Z" fill="#009788"/>
</svg>
