<svg width="30" height="30" viewBox="0 0 30 30" fill="none" xmlns="http://www.w3.org/2000/svg">
<path d="M0.363647 10.8909V20.4545C0.363647 22.1113 1.7068 23.4545 3.36365 23.4545H26.4546C28.1114 23.4545 29.4546 22.1113 29.4546 20.4545V3.18176C29.4546 1.52491 28.1114 0.181763 26.4546 0.181763H20.9945C19.3376 0.181763 17.9945 1.52491 17.9945 3.18176V4.89085C17.9945 6.54771 16.6514 7.89085 14.9945 7.89085H3.36365C1.70679 7.89085 0.363647 9.234 0.363647 10.8909Z" fill="#F3911D"/>
<path d="M0.363647 11.3727V21.909C0.363647 23.5659 1.70679 24.909 3.36365 24.909H26.8182C28.475 24.909 29.8182 23.5659 29.8182 21.909V3.18176C29.8182 1.52491 28.475 0.181763 26.8182 0.181763H21.2149C19.558 0.181763 18.2149 1.52491 18.2149 3.18176V5.37267C18.2149 7.02953 16.8717 8.37267 15.2149 8.37267H3.36365C1.70679 8.37267 0.363647 9.71582 0.363647 11.3727Z" fill="#78C971"/>
<path d="M0 12.6364V26.0909C0 27.7478 1.34315 29.0909 3 29.0909H27C28.6569 29.0909 30 27.7478 30 26.0909V3C30 1.34315 28.6569 0 27 0H21.1818C19.525 0 18.1818 1.34315 18.1818 3V6.63636C18.1818 8.29322 16.8387 9.63636 15.1818 9.63636H3C1.34315 9.63636 0 10.9795 0 12.6364Z" fill="#6E9AEE"/>
<path d="M14.9091 16.6666C14.9895 16.6666 15.0666 16.6986 15.1234 16.7554C15.1802 16.8122 15.2121 16.8893 15.2121 16.9697V19.2684L15.9067 18.5733C15.9636 18.5164 16.0408 18.4844 16.1212 18.4844C16.2017 18.4844 16.2789 18.5164 16.3358 18.5733C16.3927 18.6302 16.4247 18.7074 16.4247 18.7878C16.4247 18.8683 16.3927 18.9455 16.3358 19.0024L15.1237 20.2145C15.0955 20.2427 15.0621 20.2651 15.0253 20.2804C14.9884 20.2957 14.949 20.3035 14.9091 20.3035C14.8693 20.3035 14.8298 20.2957 14.793 20.2804C14.7562 20.2651 14.7227 20.2427 14.6946 20.2145L13.4825 19.0024C13.4543 18.9742 13.4319 18.9408 13.4167 18.9039C13.4014 18.8671 13.3936 18.8277 13.3936 18.7878C13.3936 18.748 13.4014 18.7085 13.4167 18.6717C13.4319 18.6349 13.4543 18.6015 13.4825 18.5733C13.5394 18.5164 13.6165 18.4844 13.697 18.4844C13.7368 18.4844 13.7763 18.4923 13.8131 18.5075C13.8499 18.5228 13.8834 18.5451 13.9115 18.5733L14.6061 19.2684V16.9697C14.6061 16.8893 14.638 16.8122 14.6948 16.7554C14.7517 16.6986 14.8288 16.6666 14.9091 16.6666Z" fill="white"/>
<path d="M12.4849 13.6364C12.1634 13.6364 11.8551 13.7641 11.6278 13.9914C11.4004 14.2187 11.2727 14.527 11.2727 14.8485V22.1212C11.2727 22.4427 11.4004 22.751 11.6278 22.9783C11.8551 23.2056 12.1634 23.3333 12.4849 23.3333H17.3333C17.6548 23.3333 17.9631 23.2056 18.1904 22.9783C18.4178 22.751 18.5455 22.4427 18.5455 22.1212V14.8485C18.5455 14.527 18.4178 14.2187 18.1904 13.9914C17.9631 13.7641 17.6548 13.6364 17.3333 13.6364H12.4849ZM12.4849 14.2424H17.3333C17.4941 14.2424 17.6482 14.3063 17.7619 14.4199C17.8755 14.5336 17.9394 14.6877 17.9394 14.8485V22.1212C17.9394 22.2819 17.8755 22.4361 17.7619 22.5498C17.6482 22.6634 17.4941 22.7273 17.3333 22.7273H12.4849C12.3241 22.7273 12.17 22.6634 12.0563 22.5498C11.9426 22.4361 11.8788 22.2819 11.8788 22.1212V14.8485C11.8788 14.6877 11.9426 14.5336 12.0563 14.4199C12.17 14.3063 12.3241 14.2424 12.4849 14.2424Z" fill="white"/>
</svg>
