<svg width="25" height="22" viewBox="0 0 25 22" fill="none" xmlns="http://www.w3.org/2000/svg">
<path d="M11.3723 0.0175781C10.6252 0.149414 9.99044 0.608398 9.66818 1.23828C9.41916 1.73145 9.41916 1.74121 9.41916 5.65723C9.41916 7.66406 9.40939 9.30957 9.39474 9.30957C9.38009 9.30957 8.87716 9.06543 8.27658 8.7627L7.18771 8.2207L7.40255 7.92285C7.89083 7.25879 8.10568 6.61914 8.10568 5.81836C8.10568 4.18262 7.03146 2.8252 5.41036 2.41992C5.259 2.38086 4.9172 2.35645 4.60958 2.35645C3.62814 2.36621 2.90548 2.67871 2.19259 3.39648C1.73849 3.85547 1.43087 4.37305 1.28927 4.93945C0.991416 6.09668 1.3088 7.3125 2.13399 8.19629C2.25607 8.32812 2.34396 8.44043 2.33419 8.4502C2.32442 8.45508 2.17306 8.55762 2.00704 8.66992C1.08419 9.29004 0.385947 10.3154 0.112509 11.458C0.0539155 11.7021 0.0295014 12.1562 0.00997018 13.3721C-0.00956108 14.7393 -0.00467826 15.0273 0.0636812 15.335C0.210166 15.9893 0.634971 16.5459 1.22091 16.8535L1.55294 17.0293L1.56759 19.1973C1.58224 21.2969 1.58712 21.3652 1.68478 21.4971C1.73849 21.5703 1.84591 21.6777 1.91915 21.7314C2.05099 21.8291 2.11446 21.834 4.5754 21.8486L7.09982 21.8633L7.31954 21.751C7.4465 21.6826 7.57833 21.5703 7.63693 21.4678C7.73458 21.3018 7.73458 21.209 7.74923 17.1074C7.75412 14.8076 7.76876 12.9229 7.78341 12.9229C7.79318 12.9229 8.38888 13.2158 9.10665 13.5674L10.4104 14.2168H10.9768C11.4992 14.2168 11.5627 14.207 11.8313 14.0752C12.1096 13.9385 12.466 13.6309 12.6662 13.3477L12.7639 13.2109L14.0627 13.2256L15.3615 13.2402L13.9553 17.1172C13.1789 19.2461 12.5442 21.043 12.5442 21.1113C12.5442 21.2969 12.6662 21.5361 12.8274 21.6729C13.1252 21.9219 13.5403 21.8877 13.8088 21.5947C13.8918 21.5068 14.3996 20.1738 15.425 17.3564L16.9192 13.2402L17.1877 13.2256L17.4514 13.2158L18.9113 17.2051C19.717 19.4023 20.425 21.3018 20.4836 21.4238C20.6301 21.7217 20.9328 21.8828 21.2453 21.834C21.5188 21.7852 21.7971 21.5068 21.8459 21.2334C21.8801 21.0332 21.8459 20.9453 19.5119 14.5977L19.0041 13.2207L21.0842 13.2012C22.8274 13.1865 23.1985 13.1719 23.384 13.1084C24.1604 12.835 24.7268 12.2197 24.9172 11.4531C24.9856 11.1699 24.9953 10.6035 24.9953 6.59961C24.9953 2.5957 24.9856 2.0293 24.9172 1.74609C24.7268 0.979492 24.1653 0.374023 23.384 0.0908203C23.1838 0.0175781 22.5832 0.0078125 17.3293 0.00292969C14.1213 -0.00195312 11.4406 0.0078125 11.3723 0.0175781ZM22.9787 1.50195C23.1643 1.57031 23.384 1.78027 23.4621 1.9707C23.5207 2.10254 23.5305 2.91309 23.5305 6.59473C23.5305 9.63184 23.5158 11.1064 23.4768 11.1992C23.4084 11.3848 23.1985 11.6045 23.008 11.6826C22.8762 11.7412 21.9875 11.751 17.8664 11.751H12.886L13.8381 9.84668C14.8586 7.80078 14.883 7.73242 14.6926 7.41504C14.5559 7.19531 14.3215 7.06348 14.0529 7.06348C13.6184 7.06348 13.5842 7.10742 12.6906 8.87988C12.2463 9.75391 11.8703 10.4863 11.8557 10.5059C11.8361 10.5205 11.6115 10.4326 11.3528 10.3008L10.884 10.0664V6.08203V2.09766L10.9963 1.8877C11.0744 1.74121 11.177 1.63867 11.3235 1.56055L11.5334 1.44824H17.1877C21.0647 1.44824 22.886 1.46289 22.9787 1.50195ZM4.9465 3.84082C6.05001 4.02148 6.76779 4.99805 6.62618 6.10645C6.57247 6.5166 6.39181 6.87305 6.07443 7.20508C4.9465 8.38672 2.92501 7.7373 2.67599 6.11621C2.51485 5.08594 3.19845 4.08496 4.20919 3.86523C4.59005 3.78223 4.59982 3.78223 4.9465 3.84082ZM6.24044 9.43164C6.68478 9.57324 11.3528 11.9268 11.4406 12.0537C11.5627 12.2295 11.5383 12.415 11.3625 12.6104C11.0793 12.918 11.05 12.9082 8.98947 11.8779C7.76388 11.2676 7.11935 10.9697 7.01193 10.9697C6.80685 10.9697 6.54806 11.1064 6.42111 11.2773C6.31857 11.4141 6.31857 11.4629 6.29415 15.8916L6.26974 20.3691L4.64864 20.3838L3.02267 20.3936V18.3184C3.02267 16.043 3.02755 16.0869 2.7297 15.8379C2.63692 15.7598 2.49532 15.7012 2.34884 15.6816C1.98263 15.6377 1.70431 15.4717 1.57247 15.2227C1.46505 15.0127 1.46017 14.9736 1.46017 13.5869C1.46017 12.0195 1.49923 11.7217 1.74825 11.1846C2.18282 10.2568 2.92501 9.6416 3.92599 9.37793C4.2922 9.28027 5.88888 9.31934 6.24044 9.43164Z" fill="#009788"/>
<path d="M13.064 3.15817C12.605 3.29977 12.4097 3.88571 12.6978 4.2861C12.9077 4.58395 12.7466 4.57418 17.2193 4.57418C21.1206 4.57418 21.3208 4.5693 21.482 4.48141C21.7261 4.35446 21.8921 4.01266 21.8482 3.7441C21.8042 3.48531 21.5796 3.22653 21.3452 3.15817C21.1206 3.09957 13.2691 3.09957 13.064 3.15817Z" fill="#009788"/>
<path d="M17.0781 5.88672C16.7021 5.96485 16.4922 6.21875 16.4922 6.60449C16.4922 6.87304 16.624 7.10254 16.8438 7.23437C17.0098 7.32714 17.0879 7.33203 19.1631 7.33203C21.5508 7.33203 21.5215 7.33691 21.7266 7C21.8877 6.74121 21.8975 6.55566 21.7705 6.29688C21.5508 5.85742 21.6094 5.86719 19.2852 5.85742C18.1719 5.85254 17.1807 5.86719 17.0781 5.88672Z" fill="#009788"/>
<path d="M16.9416 8.66599C16.6632 8.78806 16.4923 9.03708 16.4923 9.32028C16.4875 9.57907 16.5998 9.80369 16.8048 9.95505L16.966 10.0674L18.9923 10.082C20.1056 10.0918 21.1115 10.082 21.2287 10.0674C21.5168 10.0234 21.8 9.74509 21.8488 9.457C21.8927 9.18845 21.7267 8.84665 21.4826 8.7197C21.3263 8.63181 21.175 8.62692 19.1632 8.63181C17.9816 8.63181 16.9806 8.64645 16.9416 8.66599Z" fill="#009788"/>
</svg>
