<svg width="21" height="20" viewBox="0 0 21 20" fill="none" xmlns="http://www.w3.org/2000/svg">
<path d="M13.9193 12.6249C14.5229 12.6252 15.1017 12.8437 15.5284 13.2325C15.9552 13.6213 16.1949 14.1485 16.1949 14.6982V15.2283C16.1949 16.0534 15.871 16.8508 15.2839 17.4768C13.6936 19.1666 11.2774 20 8.09389 20C4.91039 20 2.49417 19.1657 0.908994 17.474C0.322509 16.8484 0.000209787 16.0528 0 15.2302V14.6973C0.000268385 14.1476 0.240235 13.6205 0.667139 13.2319C1.09404 12.8432 1.67293 12.6249 2.27653 12.6249H13.9193ZM13.9193 14.0078H2.27552C2.17587 14.0076 2.07717 14.0254 1.98507 14.0601C1.89297 14.0947 1.80927 14.1455 1.73876 14.2097C1.66825 14.2738 1.61231 14.35 1.57415 14.4338C1.53598 14.5176 1.51634 14.6075 1.51634 14.6982V15.2311C1.51634 15.7243 1.71069 16.2018 2.06295 16.577C3.33129 17.9304 5.32237 18.6181 8.09288 18.6181C10.8654 18.6181 12.8565 17.9304 14.1289 16.577C14.4818 16.2012 14.6757 15.7229 14.6755 15.2283V14.6982C14.6755 14.5153 14.5958 14.3398 14.4538 14.2103C14.3118 14.0809 14.1192 14.008 13.9183 14.0078H13.9193ZM18.272 0.091004C18.4468 0.000102857 18.654 -0.0238669 18.8482 0.0243644C19.0424 0.0725956 19.2076 0.18908 19.3075 0.348209C20.42 2.12162 21.0035 4.12932 21 6.17175C21 8.24967 20.4068 10.2502 19.2964 12.0128C19.2479 12.0935 19.1822 12.1645 19.1033 12.2218C19.0243 12.279 18.9335 12.3214 18.8363 12.3463C18.7392 12.3713 18.6375 12.3783 18.5373 12.367C18.4371 12.3557 18.3404 12.3264 18.2528 12.2806C18.1652 12.2349 18.0885 12.1737 18.0272 12.1006C17.9659 12.0276 17.9212 11.9441 17.8958 11.8551C17.8703 11.7662 17.8646 11.6734 17.879 11.5824C17.8933 11.4914 17.9275 11.4039 17.9795 11.3251C18.9672 9.7568 19.4852 7.97971 19.4816 6.17175C19.4816 4.34365 18.9623 2.58562 17.9886 1.03409C17.8888 0.874799 17.8627 0.685951 17.9158 0.50909C17.969 0.332228 18.0971 0.181839 18.272 0.091004ZM8.09389 1.56602C9.43621 1.56602 10.7235 2.05165 11.6727 2.91608C12.6219 3.78052 13.1551 4.95294 13.1551 6.17543C13.1551 7.39793 12.6219 8.57035 11.6727 9.43478C10.7235 10.2992 9.43621 10.7849 8.09389 10.7849C6.75157 10.7849 5.46424 10.2992 4.51507 9.43478C3.56591 8.57035 3.03268 7.39793 3.03268 6.17543C3.03268 4.95294 3.56591 3.78052 4.51507 2.91608C5.46424 2.05165 6.75157 1.56602 8.09389 1.56602ZM14.7636 1.93108C14.9385 1.84026 15.1458 1.81643 15.34 1.86484C15.5342 1.91324 15.6993 2.02992 15.7991 2.18921C16.5566 3.40299 16.9536 4.77562 16.951 6.17175C16.9531 7.57075 16.5543 8.94604 15.794 10.1617C15.7446 10.2406 15.6787 10.3099 15.5999 10.3656C15.5211 10.4213 15.431 10.4624 15.3348 10.4864C15.2386 10.5104 15.1382 10.5169 15.0392 10.5056C14.9402 10.4942 14.8447 10.4652 14.758 10.4202C14.6713 10.3753 14.5952 10.3152 14.5341 10.2434C14.4729 10.1717 14.4278 10.0896 14.4015 10.002C14.3751 9.91441 14.3679 9.82292 14.3804 9.73279C14.3928 9.64265 14.4247 9.55563 14.4741 9.4767C15.1044 8.46995 15.4348 7.33065 15.4327 6.17175C15.4351 5.01544 15.1065 3.87854 14.4791 2.87325C14.3797 2.71404 14.3537 2.52542 14.4069 2.34878C14.46 2.17214 14.5879 2.02192 14.7625 1.93108H14.7636ZM8.09389 2.94976C7.62864 2.94976 7.16794 3.03322 6.7381 3.19537C6.30826 3.35753 5.9177 3.59519 5.58872 3.89481C5.25973 4.19443 4.99877 4.55013 4.82073 4.94159C4.64268 5.33306 4.55104 5.75263 4.55104 6.17636C4.55104 6.60008 4.64268 7.01965 4.82073 7.41112C4.99877 7.80259 5.25973 8.15829 5.58872 8.4579C5.9177 8.75752 6.30826 8.99519 6.7381 9.15734C7.16794 9.31949 7.62864 9.40295 8.09389 9.40295C9.03351 9.40295 9.93465 9.06301 10.5991 8.4579C11.2635 7.8528 11.6367 7.0321 11.6367 6.17636C11.6367 5.32061 11.2635 4.49991 10.5991 3.89481C9.93465 3.28971 9.03351 2.94976 8.09389 2.94976Z" fill="#009788"/>
</svg>
